<?xml version="1.0" encoding="UTF-8"?>
<svg version="1.1" xmlns="http://www.w3.org/2000/svg" width="1024" height="1024">
<path d="M0 0 C337.92 0 675.84 0 1024 0 C1024 337.92 1024 675.84 1024 1024 C686.08 1024 348.16 1024 0 1024 C0 686.08 0 348.16 0 0 Z " fill="#FCFCFB" transform="translate(0,0)"/>
<path d="M0 0 C0.92100998 -0.00671722 1.84201996 -0.01343445 2.79093933 -0.02035522 C5.83244238 -0.03933457 8.87372463 -0.04325982 11.9152832 -0.04541016 C14.03652537 -0.05183959 16.15776665 -0.05856806 18.27900696 -0.06558228 C22.72671564 -0.07755594 27.17434665 -0.08126315 31.62207031 -0.08007812 C37.30351195 -0.07987527 42.98445149 -0.10714265 48.66577435 -0.14162254 C53.04887651 -0.16393511 57.43185885 -0.16791428 61.81501198 -0.16685867 C63.90845273 -0.1692094 66.00189706 -0.17800298 68.0952816 -0.19352341 C71.03392307 -0.21326538 73.9714951 -0.20731243 76.91015625 -0.1953125 C77.76401917 -0.20655151 78.61788208 -0.21779053 79.49761963 -0.22937012 C86.7229572 -0.15493231 93.51715544 1.66153899 99.21606445 6.25537109 C99.73168945 6.90634766 100.24731445 7.55732422 100.77856445 8.22802734 C101.58293945 9.200625 101.58293945 9.200625 102.40356445 10.19287109 C105.32606751 14.65134877 106.0298247 18.40291852 106.03735352 23.70141602 C106.04365784 24.9759111 106.04996216 26.25040619 106.05645752 27.56352234 C106.05287866 28.94518167 106.04877693 30.32683974 106.04418945 31.70849609 C106.0455374 33.13145514 106.04747902 34.55441374 106.04998779 35.97737122 C106.05293008 38.95216275 106.0486684 41.92683383 106.03930664 44.90161133 C106.02788132 48.71838239 106.03449648 52.53487311 106.04645157 56.35163403 C106.05366786 59.28638332 106.05138387 62.22106576 106.04619598 65.15581703 C106.04486045 66.56366318 106.04650384 67.97151537 106.05115509 69.37935448 C106.05621963 71.34217593 106.04713515 73.30501865 106.03735352 75.26782227 C106.03576233 76.38525314 106.03417114 77.50268402 106.03253174 78.65397644 C105.77856445 81.29052734 105.77856445 81.29052734 103.77856445 83.29052734 C100.51293945 83.59130859 100.51293945 83.59130859 96.52856445 83.60302734 C95.2240332 83.61978516 93.91950195 83.63654297 92.57543945 83.65380859 C88.51400967 83.265215 86.14674348 82.57750097 82.77856445 80.29052734 C81.11046662 76.92999237 80.52003071 74.13785763 80.4597168 70.40844727 C80.42991226 68.99755074 80.42991226 68.99755074 80.39950562 67.55815125 C80.3821788 66.05475945 80.3821788 66.05475945 80.36450195 64.52099609 C80.33545273 62.96678703 80.33545273 62.96678703 80.30581665 61.38117981 C80.24616089 58.08021205 80.19969115 54.77920916 80.15356445 51.47802734 C80.11537182 49.2364759 80.07631934 46.99493892 80.03637695 44.75341797 C79.94047087 39.26591649 79.85538246 33.77832744 79.77856445 28.29052734 C76.80101378 26.80175201 73.76341847 27.15184222 70.49902344 27.16113281 C69.3744574 27.15850433 69.3744574 27.15850433 68.22717285 27.15582275 C65.74297793 27.15141256 63.25885388 27.15433901 60.7746582 27.15771484 C59.05355312 27.15704164 57.33244814 27.15607147 55.61134338 27.15481567 C52.00244238 27.15333989 48.3935661 27.15548971 44.78466797 27.16015625 C40.14833582 27.16585774 35.5120615 27.16257112 30.87573147 27.15658379 C27.32167623 27.15297861 23.76763482 27.15411648 20.21357918 27.15671158 C18.5034694 27.15738075 16.79335838 27.15655278 15.08325005 27.15423203 C12.69836961 27.15170574 10.31358425 27.15554552 7.92871094 27.16113281 C7.21544144 27.15910858 6.50217194 27.15708435 5.76728821 27.15499878 C2.49155531 26.88751871 2.49155531 26.88751871 -0.22143555 28.29052734 C-0.33578275 30.7173591 -0.3862567 33.11690849 -0.39501953 35.54492188 C-0.40505005 36.68407295 -0.40505005 36.68407295 -0.4152832 37.84623718 C-0.42936895 39.50173439 -0.44125167 41.15725142 -0.451231 42.81277847 C-0.46760858 45.43603877 -0.49084847 48.05915385 -0.51612854 50.68234253 C-0.58696902 58.14313531 -0.64685756 65.60398989 -0.69824219 73.06494141 C-0.73012685 77.62437461 -0.77143545 82.18364544 -0.81843758 86.74294662 C-0.83441185 88.47876928 -0.84675445 90.2146294 -0.85534477 91.9505043 C-0.86756913 94.3870911 -0.89175115 96.82330044 -0.91845703 99.25976562 C-0.91904617 99.97173599 -0.91963531 100.68370636 -0.92024231 101.41725159 C-0.9962412 106.67940688 -1.40428221 112.04370229 -4.80737305 116.25146484 C-5.69295898 116.95142578 -5.69295898 116.95142578 -6.59643555 117.66552734 C-7.18166992 118.14763672 -7.7669043 118.62974609 -8.36987305 119.12646484 C-12.55198832 121.75572719 -17.08353092 121.43589704 -21.87988281 121.43237305 C-23.02932877 121.43758469 -23.02932877 121.43758469 -24.20199585 121.44290161 C-25.86236919 121.45024118 -27.52275223 121.45559613 -29.18313789 121.45919228 C-31.80974897 121.46636845 -34.43617442 121.48204138 -37.06272888 121.50053406 C-44.52926167 121.5529657 -51.99568917 121.601024 -59.46240234 121.61645508 C-64.031881 121.62651738 -68.60088713 121.65578995 -73.17017937 121.69777489 C-74.91209279 121.71010807 -76.65407285 121.71520192 -78.39602852 121.71297646 C-80.82866328 121.71063218 -83.25993224 121.73271857 -85.69238281 121.76049805 C-86.41402115 121.75389664 -87.13565948 121.74729523 -87.87916565 121.74049377 C-90.91283227 121.79753629 -92.777355 121.92967168 -95.16972351 123.87368774 C-96.61173547 127.18743854 -96.58804266 129.87566087 -96.57788086 133.48999023 C-96.57992523 134.20751968 -96.5819696 134.92504913 -96.58407593 135.6643219 C-96.58707868 138.03087025 -96.56862333 140.3967183 -96.54956055 142.76318359 C-96.54650202 144.4093763 -96.54462661 146.05557159 -96.54388428 147.70176697 C-96.53928447 151.14917936 -96.52487036 154.59635775 -96.50268555 158.04370117 C-96.4743813 162.4645602 -96.46347134 166.88523515 -96.45900345 171.30617619 C-96.45484861 174.70419661 -96.44503094 178.10217978 -96.43312836 181.5001812 C-96.42742825 183.13048441 -96.42266868 184.7607912 -96.41886139 186.39109993 C-96.41199332 188.66761705 -96.39835883 190.94398845 -96.38256836 193.22045898 C-96.37232635 195.16427208 -96.37232635 195.16427208 -96.36187744 197.14735413 C-96.36373482 200.31957313 -96.36373482 200.31957313 -95.22143555 203.29052734 C-92.67458415 204.56395304 -90.87608794 204.42201262 -88.02490234 204.43237305 C-86.94005051 204.4394075 -85.85519867 204.44644196 -84.73747253 204.45368958 C-82.97189751 204.45993599 -82.97189751 204.45993599 -81.1706543 204.46630859 C-78.69343225 204.4895064 -76.21621868 204.51362372 -73.73901367 204.53857422 C-69.8217197 204.57371021 -65.90473715 204.60304172 -61.98730469 204.61645508 C-58.21470156 204.63191169 -54.44301575 204.6721105 -50.6706543 204.71630859 C-49.49967697 204.71440018 -48.32869965 204.71249176 -47.12223816 204.71052551 C-38.98208973 204.83319539 -38.98208973 204.83319539 -35.05859375 207.19213867 C-33.20374848 209.31072938 -31.40255064 211.40553772 -29.72143555 213.66552734 C-29.12202148 214.45443359 -28.52260742 215.24333984 -27.9050293 216.05615234 C-27.34944336 216.79349609 -26.79385742 217.53083984 -26.22143555 218.29052734 C-20.7627614 225.28882753 -14.26364248 230.68382113 -7.08081055 235.83349609 C-1.42307595 240.26697299 -1.42307595 240.26697299 -0.70918274 243.89079285 C-0.7033165 244.87372818 -0.69745026 245.85666351 -0.69140625 246.86938477 C-0.67491531 247.98701706 -0.65842438 249.10464935 -0.64143372 250.25614929 C-0.64334213 251.45729874 -0.64525055 252.65844818 -0.6472168 253.89599609 C-0.63305222 255.13094315 -0.61888763 256.3658902 -0.60429382 257.63825989 C-0.5694546 260.91440267 -0.55108693 264.19007234 -0.54150391 267.46636963 C-0.52409224 272.09436348 -0.47706987 276.72214069 -0.43144226 281.34992981 C-0.40885592 283.81381416 -0.39309718 286.27777178 -0.38459778 288.741745 C-0.3740461 290.40400871 -0.3740461 290.40400871 -0.36328125 292.09985352 C-0.35980179 293.08040207 -0.35632233 294.06095062 -0.35273743 295.07121277 C-0.46952105 297.26381209 -0.46952105 297.26381209 0.77856445 298.29052734 C3.20713481 298.39082591 5.60728058 298.42671159 8.03637695 298.41992188 C8.79569519 298.42167419 9.55501343 298.42342651 10.33734131 298.42523193 C12.85943861 298.42965064 15.38146638 298.4267124 17.90356445 298.42333984 C19.64851902 298.42401288 21.39347349 298.4249829 23.13842773 298.42623901 C26.8003834 298.42771601 30.46231473 298.42556137 34.12426758 298.42089844 C38.82900938 298.41520115 43.53369413 298.41848014 48.23843384 298.4244709 C51.84310337 298.42807646 55.44775927 298.42693795 59.0524292 298.42434311 C60.78765876 298.42367383 62.52288954 298.42450231 64.25811768 298.42682266 C66.67902933 298.42934911 69.09984732 298.42550873 71.52075195 298.41992188 C72.60703888 298.42295822 72.60703888 298.42295822 73.715271 298.42605591 C77.03010536 298.70043214 77.03010536 298.70043214 79.77856445 297.29052734 C79.8849985 295.92533363 79.92473387 294.55483456 79.9362793 293.18554688 C79.94654144 292.3143924 79.95680359 291.44323792 79.96737671 290.54568481 C79.97467804 289.59781097 79.98197937 288.64993713 79.98950195 287.67333984 C80.01756954 285.68505035 80.046234 283.6967692 80.07543945 281.70849609 C80.11674108 278.55924705 80.15360936 275.4101541 80.17993164 272.26074219 C80.20747656 269.23127629 80.25334948 266.20253028 80.30200195 263.17333984 C80.30525482 262.22951447 80.30850769 261.28568909 80.31185913 260.31326294 C80.3284256 259.43580414 80.34499207 258.55834534 80.36206055 257.65429688 C80.37419083 256.49633102 80.37419083 256.49633102 80.38656616 255.31497192 C80.88400406 252.7459927 81.74518831 251.89441892 83.77856445 250.29052734 C85.83205387 249.4053069 87.92101595 248.60047187 90.02856445 247.85302734 C94.96803721 246.03583001 99.28101627 243.98905625 103.77856445 241.29052734 C104.43856445 241.29052734 105.09856445 241.29052734 105.77856445 241.29052734 C105.89492224 249.72306287 105.9835123 258.15525747 106.03762531 266.58839989 C106.06361004 270.5051873 106.09880049 274.42142151 106.15576172 278.33789062 C106.2104843 282.12456241 106.24006844 285.91070547 106.25295067 289.69774246 C106.26211913 291.13534482 106.28002167 292.57292148 106.30721474 294.01029587 C106.47800915 303.42090899 105.84119247 311.52359048 99.37080383 318.89413452 C92.97114247 324.7121779 86.45526585 325.73729655 78.20654297 325.69458008 C77.27227478 325.70144333 76.33800659 325.70830658 75.37542725 325.71537781 C72.30261825 325.73360349 69.23032189 325.72981432 66.1574707 325.72412109 C64.01187474 325.72868487 61.86628025 325.73399103 59.72068787 325.74000549 C55.22942151 325.74892827 50.73833305 325.74652282 46.24707031 325.73657227 C40.502688 325.72508309 34.75892045 325.74529795 29.01461887 325.7744894 C24.5852623 325.79286947 20.15605256 325.79255531 15.7266674 325.78685188 C13.60925369 325.78669889 11.49182989 325.79272461 9.37445259 325.80514336 C6.40924053 325.82008561 3.44515813 325.8093522 0.47998047 325.79223633 C-0.38728165 325.8019043 -1.25454376 325.81157227 -2.14808655 325.8215332 C-9.18158205 325.73687742 -14.36725513 323.78227215 -19.68237305 319.14208984 C-20.31401367 318.40732422 -20.9456543 317.67255859 -21.59643555 316.91552734 C-22.24354492 316.18591797 -22.8906543 315.45630859 -23.55737305 314.70458984 C-27.03573674 309.65851293 -27.51089881 304.61392121 -27.44848633 298.6328125 C-27.44877838 297.89066498 -27.44907043 297.14851746 -27.44937134 296.38388062 C-27.44798627 293.94899499 -27.43246426 291.51442152 -27.41674805 289.07958984 C-27.41301498 287.38422818 -27.4101694 285.68886435 -27.40817261 283.99349976 C-27.40055924 279.54488096 -27.3809306 275.09639406 -27.35876465 270.64782715 C-27.33825662 266.10296411 -27.32916031 261.55807963 -27.3190918 257.01318359 C-27.29768244 248.10557376 -27.26357436 239.19806155 -27.22143555 230.29052734 C-28.0990303 230.29940979 -28.97662506 230.30829224 -29.8808136 230.31744385 C-38.19195428 230.39792614 -46.50296218 230.45866164 -54.81440449 230.49777603 C-59.0864011 230.51856192 -63.35807301 230.54671262 -67.62988281 230.59228516 C-71.760181 230.63606724 -75.89016886 230.65973194 -80.02068138 230.67003632 C-81.58860337 230.67737013 -83.15651031 230.69168982 -84.72429848 230.71344757 C-95.04836783 230.8508959 -104.91127628 230.43460943 -113.59643555 224.10302734 C-118.84812316 218.47621919 -122.31193353 212.05156886 -122.37533569 204.27023315 C-122.38393616 203.47984146 -122.39253662 202.68944977 -122.40139771 201.87510681 C-122.40565765 201.0168782 -122.4099176 200.1586496 -122.41430664 199.27441406 C-122.42248413 198.36330368 -122.43066162 197.4521933 -122.43908691 196.51347351 C-122.46389168 193.49906055 -122.48044634 190.48469461 -122.49487305 187.47021484 C-122.50019672 186.43827122 -122.5055204 185.40632759 -122.5110054 184.34311295 C-122.5377184 178.87865187 -122.55709736 173.41421347 -122.5715332 167.94970703 C-122.58485926 163.43745595 -122.61269042 158.92565849 -122.65356445 154.41357422 C-122.70299907 148.95592947 -122.72766778 143.4986954 -122.73476028 138.04083633 C-122.7414543 135.96690512 -122.75662786 133.89298241 -122.78065109 131.81917953 C-123.01584288 110.28393563 -123.01584288 110.28393563 -117.22143555 103.29052734 C-110.91153863 97.41486879 -105.25090271 94.9747206 -96.58544922 95.06347656 C-95.45781662 95.06303848 -95.45781662 95.06303848 -94.30740356 95.06259155 C-91.83461774 95.06397949 -89.36213717 95.07951524 -86.8894043 95.09521484 C-85.17019312 95.09894688 -83.45097981 95.10179295 -81.73176575 95.10379028 C-77.21572964 95.11141171 -72.69982299 95.13104737 -68.18383789 95.15319824 C-63.5720393 95.17368881 -58.9602197 95.18279886 -54.34838867 95.19287109 C-45.30601421 95.21429469 -36.26373566 95.24841261 -27.22143555 95.29052734 C-27.2325386 94.34807159 -27.24364166 93.40561584 -27.25508118 92.43460083 C-27.35677423 83.51984065 -27.43155216 74.60519933 -27.48049641 65.68998909 C-27.50650596 61.10736905 -27.54174424 56.52522009 -27.59863281 51.94287109 C-27.65326338 47.51430557 -27.68292097 43.08619098 -27.69582176 38.6573143 C-27.7050063 36.97410873 -27.72294098 35.29092571 -27.75008583 33.60791397 C-28.02541102 15.81761746 -28.02541102 15.81761746 -22.22143555 8.29052734 C-15.33424079 1.82787409 -9.27070844 -0.00972554 0 0 Z " fill="#00375A" transform="translate(466.221435546875,213.70947265625)"/>
<path d="M0 0 C5.02346021 3.00274501 8.47293277 6.51274538 10.828125 11.9296875 C12.40306979 18.49195744 11.72334922 23.08960708 8.578125 29.0546875 C4.92430593 34.48321869 1.63413265 36.33637391 -4.421875 38.0546875 C-5.50855469 38.26222656 -6.59523438 38.46976562 -7.71484375 38.68359375 C-12.66580195 40.51477007 -15.3124272 43.43453561 -18.859375 47.2421875 C-20.1724821 48.60869267 -21.48756559 49.97330162 -22.8046875 51.3359375 C-23.42762695 51.98433594 -24.05056641 52.63273437 -24.69238281 53.30078125 C-27.30469072 55.94996533 -30.10305619 58.33563401 -33.00390625 60.66015625 C-34.66471094 62.29350962 -35.49084666 63.93375953 -36.421875 66.0546875 C-34.875 65.961875 -34.875 65.961875 -33.296875 65.8671875 C-29.1282811 66.06889366 -26.92815323 66.85307094 -23.421875 69.0546875 C-20.38552943 73.60920585 -20.91305629 78.07518065 -21.81787109 83.37353516 C-22.35307492 85.72612897 -22.95916019 88.04379782 -23.609375 90.3671875 C-23.83713623 91.19750488 -24.06489746 92.02782227 -24.29956055 92.88330078 C-31.8486977 119.65007939 -49.87948963 143.28108473 -74.1875 157.05517578 C-94.29184454 167.93228176 -117.82963067 170.7109125 -139.85546875 164.25 C-141.03238281 163.85554687 -142.20929688 163.46109375 -143.421875 163.0546875 C-144.54722656 162.68085938 -145.67257812 162.30703125 -146.83203125 161.921875 C-159.02858343 157.5316977 -169.60614518 151.4930769 -179.421875 143.0546875 C-180.03417969 142.57515625 -180.64648438 142.095625 -181.27734375 141.6015625 C-199.32173362 127.23211702 -211.07476729 102.8315492 -213.91015625 80.1484375 C-214.1553274 73.92809514 -214.1553274 73.92809514 -213.421875 71.0546875 C-209.71527555 67.54001553 -207.20564585 65.91309122 -202.15338135 65.99740601 C-201.25686859 66.00929459 -200.36035583 66.02118317 -199.43667603 66.03343201 C-197.95643448 66.06014732 -197.95643448 66.06014732 -196.44628906 66.08740234 C-194.29364939 66.11684435 -192.14099979 66.14556739 -189.98834229 66.17367554 C-188.84091805 66.18970196 -187.6934938 66.20572838 -186.51129913 66.22224045 C-179.13148143 66.31182861 -171.75108558 66.33012963 -164.37082291 66.35858727 C-157.90233814 66.38751494 -151.43630798 66.44291435 -144.96875 66.55859375 C-138.70211653 66.66925663 -132.43886782 66.70435873 -126.17131805 66.69108963 C-123.80009001 66.69899765 -121.42877908 66.73293703 -119.05835724 66.79526901 C-101.13334044 67.2438208 -90.50319784 63.11011004 -76.58168507 51.79349518 C-73.82167095 49.57147862 -70.95515601 47.59359211 -68.015625 45.6171875 C-65.37646295 43.77566872 -62.74203322 41.92786537 -60.11206055 40.07324219 C-55.2178912 36.63697194 -50.28964017 33.30991398 -45.22265625 30.1328125 C-44.21847656 29.48957031 -43.21429687 28.84632813 -42.1796875 28.18359375 C-40.27903838 26.97111069 -38.36180852 25.78406021 -36.42578125 24.62890625 C-30.16070101 20.58661645 -28.0385438 17.03108294 -26.29370117 9.77880859 C-24.68922326 4.76543292 -20.8763008 2.53456188 -16.5625 -0.06640625 C-11.49934354 -2.14525699 -5.06400943 -1.97659723 0 0 Z " fill="#01375A" transform="translate(635.421875,287.9453125)"/>
<path d="M0 0 C61.82613636 0 61.82613636 0 73.3125 10.6875 C81.40584002 19.32148824 83.5018088 28.59703593 83.27734375 40.1015625 C82.52574332 50.66631227 77.63449447 58.56700529 70.125 65.75 C59.27617938 73.56115085 48.47998245 74.31342894 35.375 74.125 C31.29125 74.08375 27.2075 74.0425 23 74 C23 86.21 23 98.42 23 111 C15.41 111 7.82 111 0 111 C0 74.37 0 37.74 0 0 Z " fill="#023859" transform="translate(133,585)"/>
<path d="M0 0 C0.63292969 0.43957031 1.26585937 0.87914062 1.91796875 1.33203125 C7.92204654 5.93118134 12.61486159 12.84458477 15 20 C7.81460335 22.87415866 0.45065632 24.93851223 -7 27 C-7.4125 26.40832031 -7.825 25.81664062 -8.25 25.20703125 C-13.80339222 17.60830485 -19.53293931 12.73562779 -29 11 C-39.41383679 10.18322849 -47.96153997 11.5367232 -56.21484375 18.21484375 C-64.14361836 26.14361836 -66.27653989 37.64124987 -66.4375 48.4375 C-66.36071259 59.1440282 -63.81387861 69.25797315 -56 77 C-47.92232367 83.4325284 -39.14612841 85.00193018 -29 84 C-21.27027841 82.28342619 -15.26431189 78.9369021 -10 73 C-7.290034 68.71650535 -6.86648401 66.19890408 -6 61 C-14.91 61 -23.82 61 -33 61 C-33 55.39 -33 49.78 -33 44 C-16.5 44 0 44 17 44 C17 63.59782448 16.55340374 77.08831215 3.25 91.25 C-8.10280008 101.87450724 -21.6354953 105.63190022 -36.87817383 105.47485352 C-53.33569855 104.87612668 -66.58830345 98.89771429 -78 87 C-90.84222971 71.05033569 -91.4304193 52.69757725 -90 33 C-88.14599029 20.60248056 -81.26048083 8.83370715 -71.65234375 0.8515625 C-50.83676016 -13.67949291 -20.98915075 -15.23344213 0 0 Z " fill="#013658" transform="translate(781,593)"/>
<path d="M0 0 C3.50714308 2.18800066 5.75283243 5.04571885 8.16015625 8.34765625 C9.15015625 9.33765625 9.15015625 9.33765625 10.16015625 10.34765625 C10.58425781 9.8165625 11.00835938 9.28546875 11.4453125 8.73828125 C16.16728516 3.05115814 20.65767346 -1.21569811 28.16015625 -2.65234375 C37.89427593 -3.40875305 47.14663031 -3.08395335 55.25390625 2.890625 C61.02438064 8.23320404 64.93918952 15.20853258 65.28041077 23.14447021 C65.27819016 24.21924622 65.27596954 25.29402222 65.27368164 26.40136719 C65.27356834 28.23281281 65.27356834 28.23281281 65.27345276 30.10125732 C65.26829147 31.41491272 65.26313019 32.72856812 65.2578125 34.08203125 C65.25594646 35.44394885 65.25452343 36.80586713 65.25352478 38.16778564 C65.24971428 41.74507514 65.23989657 45.32232377 65.2288208 48.89959717 C65.21857509 52.55285082 65.2140204 56.20611111 65.20898438 59.859375 C65.19827294 67.02215617 65.18068807 74.18489527 65.16015625 81.34765625 C58.23015625 81.34765625 51.30015625 81.34765625 44.16015625 81.34765625 C44.15081055 79.78402344 44.14146484 78.22039062 44.13183594 76.609375 C44.09184949 70.78698641 44.02606531 64.96512136 43.95263672 59.14306641 C43.92447748 56.6271845 43.90323797 54.11121495 43.88916016 51.59521484 C43.86766169 47.97057389 43.82097255 44.34698108 43.76953125 40.72265625 C43.76830261 39.60463623 43.76707397 38.48661621 43.76580811 37.3347168 C43.64013827 30.57601591 42.81491186 26.08821517 39.16015625 20.34765625 C35.31012565 17.547634 31.7867558 16.80469049 27.1171875 16.9921875 C22.89903497 17.75835892 20.0982759 20.28014078 17.34765625 23.41015625 C15.26347184 26.81066765 15.01962006 29.6570471 14.95483398 33.5534668 C14.93488876 34.61434006 14.91494354 35.67521332 14.89439392 36.76823425 C14.87768143 37.9120607 14.86096893 39.05588715 14.84375 40.234375 C14.81257835 41.99259331 14.81257835 41.99259331 14.78077698 43.78633118 C14.71531807 47.53587911 14.65641329 51.28549788 14.59765625 55.03515625 C14.55446757 57.57487716 14.51085317 60.11459087 14.46679688 62.65429688 C14.35964035 68.8853438 14.25836237 75.11646209 14.16015625 81.34765625 C7.23015625 81.34765625 0.30015625 81.34765625 -6.83984375 81.34765625 C-6.84918945 79.78402344 -6.85853516 78.22039062 -6.86816406 76.609375 C-6.90815051 70.78698641 -6.97393469 64.96512136 -7.04736328 59.14306641 C-7.07552252 56.6271845 -7.09676203 54.11121495 -7.11083984 51.59521484 C-7.13233831 47.97057389 -7.17902745 44.34698108 -7.23046875 40.72265625 C-7.23169739 39.60463623 -7.23292603 38.48661621 -7.23419189 37.3347168 C-7.35984004 30.57718263 -8.18047495 26.08495809 -11.83984375 20.34765625 C-16.12969494 17.29709541 -19.64431186 16.79099212 -24.83984375 17.34765625 C-30.02038879 19.17608391 -32.16980857 21.60092705 -34.83984375 26.34765625 C-35.82948612 29.31658336 -35.99258102 31.35915533 -36.04516602 34.46166992 C-36.06511124 35.50252243 -36.08505646 36.54337494 -36.10560608 37.61576843 C-36.13067482 39.29869743 -36.13067482 39.29869743 -36.15625 41.015625 C-36.1770311 42.16557449 -36.19781219 43.31552399 -36.21922302 44.50032043 C-36.28467717 48.1785375 -36.34358449 51.85682673 -36.40234375 55.53515625 C-36.44553288 58.02670021 -36.4891473 60.51823684 -36.53320312 63.00976562 C-36.6403544 69.12232163 -36.74163372 75.23495031 -36.83984375 81.34765625 C-44.09984375 81.34765625 -51.35984375 81.34765625 -58.83984375 81.34765625 C-58.83984375 54.28765625 -58.83984375 27.22765625 -58.83984375 -0.65234375 C-51.57984375 -0.65234375 -44.31984375 -0.65234375 -36.83984375 -0.65234375 C-36.50984375 2.31765625 -36.17984375 5.28765625 -35.83984375 8.34765625 C-35.34484375 7.62578125 -34.84984375 6.90390625 -34.33984375 6.16015625 C-25.43837361 -3.85399766 -12.0355692 -5.46003871 0 0 Z " fill="#003556" transform="translate(525.83984375,614.65234375)"/>
<path d="M0 0 C9.72504494 6.53628871 15.26588811 14.60331897 18.33984375 25.87890625 C20.83413969 38.89972495 18.95089122 51.92084989 11.64453125 63.05859375 C4.7060889 72.5126325 -4.61716643 77.57933666 -16.00390625 80.3046875 C-28.50895121 81.49039187 -39.62024628 79.47755593 -49.90625 72.06640625 C-58.76015157 64.63044795 -64.59961866 55.86838898 -66.00390625 44.3046875 C-66.90018125 31.17504492 -65.44928015 19.73213895 -57.00390625 9.3046875 C-54.62890625 6.6171875 -54.62890625 6.6171875 -52.00390625 4.3046875 C-51.45347656 3.81226563 -50.90304687 3.31984375 -50.3359375 2.8125 C-36.24912307 -8.86358124 -15.54616379 -8.77377774 0 0 Z " fill="#013658" transform="translate(874.00390625,617.6953125)"/>
<path d="M0 0 C43.56 0 87.12 0 132 0 C133.83444249 5.50332747 130.34336725 10.94386771 128 16 C125.9083466 19.54887165 123.5605808 22.77700808 121 26 C120.23429688 27.01126953 120.23429688 27.01126953 119.453125 28.04296875 C108.11955248 42.09772081 90.79785392 51.54209662 73 54 C54.89397034 55.80383857 36.77693234 48.99941606 22.5 38.0625 C12.40020691 29.33073908 3.51640241 18.12435043 0 5 C0 3.35 0 1.7 0 0 Z " fill="#FBFBFA" transform="translate(452,377)"/>
<path d="M0 0 C6.02597737 4.1546942 10.27885817 9.18483292 12.25265503 16.30436707 C13.21324123 21.61703574 12.91460054 27.07388154 12.87109375 32.453125 C12.86735792 33.788333 12.86451364 35.12354376 12.86251831 36.45875549 C12.85492666 39.95221691 12.83531731 43.4455088 12.81311035 46.93890381 C12.79255496 50.51198026 12.78349598 54.08508443 12.7734375 57.65820312 C12.75206657 64.65372198 12.71692153 71.64910099 12.67578125 78.64453125 C6.07578125 78.64453125 -0.52421875 78.64453125 -7.32421875 78.64453125 C-7.32421875 76.00453125 -7.32421875 73.36453125 -7.32421875 70.64453125 C-7.91847656 71.11503906 -8.51273437 71.58554687 -9.125 72.0703125 C-18.32028195 78.97749941 -27.77811131 82.04792552 -39.32421875 80.64453125 C-47.31352448 78.94122749 -54.14029506 76.14935857 -59.32421875 69.64453125 C-63.27005939 63.07560336 -64.42360301 56.20421478 -63.32421875 48.64453125 C-61.50734912 42.41987138 -57.71501817 38.12781703 -52.32421875 34.64453125 C-45.05284638 30.75281083 -37.43746767 29.5742763 -29.32421875 28.64453125 C-28.34839844 28.53238281 -27.37257813 28.42023437 -26.3671875 28.3046875 C-20.66290365 27.72229209 -15.05621908 27.55056403 -9.32421875 27.64453125 C-10.0204747 20.54875666 -10.0204747 20.54875666 -14.19921875 15.08203125 C-20.32153895 12.26576396 -26.09031224 11.58729258 -32.57421875 13.70703125 C-36.1445103 15.9316525 -36.1445103 15.9316525 -39.32421875 22.64453125 C-46.58421875 22.64453125 -53.84421875 22.64453125 -61.32421875 22.64453125 C-59.08038597 12.54728374 -56.24974789 5.76955921 -47.546875 -0.0703125 C-33.45564199 -8.21796744 -14.12797132 -8.23933789 0 0 Z " fill="#013657" transform="translate(377.32421875,617.35546875)"/>
<path d="M0 0 C7.90573252 5.45446844 11.76731647 11.48123867 13.75 20.8125 C14.13133515 25.37367147 14.10116587 29.90213658 14.04296875 34.4765625 C14.03872391 35.74978363 14.03447906 37.02300476 14.03010559 38.33480835 C14.01624915 41.68539095 13.98939741 45.03533521 13.95599365 48.38574219 C13.92505403 51.81830391 13.91154975 55.25093215 13.89648438 58.68359375 C13.86355075 65.39342492 13.8118384 72.10287549 13.75 78.8125 C7.15 78.8125 0.55 78.8125 -6.25 78.8125 C-6.25 76.1725 -6.25 73.5325 -6.25 70.8125 C-6.85585938 71.28300781 -7.46171875 71.75351562 -8.0859375 72.23828125 C-17.30389192 79.08793046 -25.71892433 81.97204951 -37.25 80.8125 C-46.30776871 79.32761988 -52.89485919 76.05057261 -58.625 68.8125 C-62.0166521 62.55098843 -63.23807574 56.88504212 -62.25 49.8125 C-59.63032893 41.52702872 -54.99357795 36.80649276 -47.4140625 32.85546875 C-35.19361846 27.62181867 -21.24139572 28.57935431 -8.25 28.8125 C-8.35777883 27.37274821 -8.48045661 25.9341068 -8.609375 24.49609375 C-8.67608398 23.69486084 -8.74279297 22.89362793 -8.81152344 22.06811523 C-9.51011105 18.4744343 -11.39485882 16.95385588 -14.25 14.8125 C-18.60881418 12.26985839 -23.33512963 12.13923009 -28.25 12.8125 C-33.95853768 14.74462045 -35.46467779 17.24185557 -38.25 22.8125 C-45.18 22.8125 -52.11 22.8125 -59.25 22.8125 C-59.25 15.36510947 -57.37285108 10.39020113 -52.453125 4.75390625 C-38.78573611 -7.95676542 -16.00405147 -9.0060822 0 0 Z " fill="#013657" transform="translate(664.25,617.1875)"/>
<path d="M0 0 C7.59 0 15.18 0 23 0 C23.495 18.315 23.495 18.315 24 37 C26.64 34.69 29.28 32.38 32 30 C40.07154386 25.68589897 50.02987419 25.62715022 58.8125 28 C65.75178069 30.77053371 71.36816613 35.91505058 74.5 42.6875 C76.50207395 47.75756689 77.12516496 52.54796474 77.11352539 57.98364258 C77.11341209 59.75491264 77.11341209 59.75491264 77.11329651 61.56196594 C77.10813522 62.82671249 77.10297394 64.09145905 77.09765625 65.39453125 C77.0962413 66.69702316 77.09482635 67.99951508 77.09336853 69.34147644 C77.08956355 72.79216454 77.07975064 76.24281008 77.06866455 79.69348145 C77.05840689 83.21947657 77.0538616 86.74547861 77.04882812 90.27148438 C77.03812644 97.18100876 77.02054612 104.09049795 77 111 C69.74 111 62.48 111 55 111 C54.98541748 109.32977783 54.97083496 107.65955566 54.95581055 105.9387207 C54.89783817 99.74188834 54.82060427 93.54541973 54.73754883 87.34887695 C54.70264989 84.66693399 54.6750113 81.98506199 54.65356445 79.30297852 C54.62002854 75.44777567 54.56771073 71.59321525 54.51171875 67.73828125 C54.50532883 66.53915604 54.4989389 65.34003082 54.49235535 64.10456848 C54.47256119 62.98378403 54.45276703 61.86299957 54.43237305 60.70825195 C54.41571846 59.23265556 54.41571846 59.23265556 54.39872742 57.72724915 C53.92795801 54.50724115 52.895745 52.62564935 51 50 C45.79144617 46.22379848 40.18433536 46.31898688 34 47 C29.75107147 48.51747448 27.31027127 50.10901681 25 54 C23.99314613 57.02056161 23.84627314 59.13554614 23.79467773 62.29760742 C23.77473251 63.37850143 23.75478729 64.45939545 23.73423767 65.57304382 C23.70916893 67.32159416 23.70916893 67.32159416 23.68359375 69.10546875 C23.66281265 70.29981033 23.64203156 71.49415192 23.62062073 72.72468567 C23.55515724 76.54556443 23.4962549 80.36651276 23.4375 84.1875 C23.39431176 86.77539786 23.35069737 89.36328865 23.30664062 91.95117188 C23.19947905 98.30070968 23.09820236 104.65031756 23 111 C15.41 111 7.82 111 0 111 C0 74.37 0 37.74 0 0 Z " fill="#02385A" transform="translate(226,585)"/>
<path d="M0 0 C5.76842881 3.62586954 8.90107969 9.67179684 10.55340576 16.17964172 C11.10795728 19.6817782 11.15552667 23.1251542 11.16113281 26.66088867 C11.16858017 27.79368759 11.16858017 27.79368759 11.17617798 28.94937134 C11.19073864 31.43891322 11.19759233 33.92839134 11.203125 36.41796875 C11.20888261 38.1580658 11.21464026 39.89816284 11.22039795 41.63825989 C11.23089142 45.285617 11.23674452 48.93295219 11.24023438 52.58032227 C11.24570765 57.23260503 11.26971765 61.88459345 11.29820633 66.53678417 C11.31691951 70.13237833 11.32204297 73.72790291 11.32357025 77.32354164 C11.32657907 79.03739336 11.33454709 80.75124438 11.34775543 82.46504784 C11.44838074 96.52803865 10.32844359 108.03244324 0.37109375 118.75390625 C-6.17095213 124.81023178 -14.34126527 128.13509402 -23.22753906 128.11352539 C-24.26831604 128.11344986 -25.30909302 128.11337433 -26.38140869 128.11329651 C-27.49820007 128.10813522 -28.61499146 128.10297394 -29.765625 128.09765625 C-31.48842682 128.09553383 -31.48842682 128.09553383 -33.24603271 128.09336853 C-36.91404831 128.08777143 -40.58200285 128.07521944 -44.25 128.0625 C-46.73697829 128.05748463 -49.22395753 128.05292178 -51.7109375 128.04882812 C-57.8073125 128.03780295 -63.90365189 128.02106769 -70 128 C-69.04548053 126.72303177 -68.09036916 125.44650597 -67.13500977 124.17016602 C-66.60319595 123.45925308 -66.07138214 122.74834015 -65.52345276 122.0158844 C-63.10154181 118.81112962 -60.56221139 115.70529457 -58.02734375 112.58984375 C-56.03719777 110.21622773 -56.03719777 110.21622773 -55.05639648 108.1574707 C-53.87156028 106.01639366 -52.88477487 104.57400611 -51 103 C-47.06109892 102.08085944 -43.21449411 102.20300469 -39.1875 102.3125 C-28.3917243 102.68634793 -28.3917243 102.68634793 -19 98 C-15.46888504 93.50364094 -14.5099716 90.63569173 -14.58105469 84.9440918 C-14.58482368 83.92570724 -14.58482368 83.92570724 -14.58866882 82.88674927 C-14.59604545 81.42169716 -14.61223997 79.95666785 -14.63640594 78.49179649 C-14.6723967 76.16549846 -14.67980881 73.84067461 -14.67926025 71.51411438 C-14.68187376 64.90356832 -14.72815953 58.29385586 -14.81103516 51.68383789 C-14.85985932 47.63057151 -14.86938175 43.57869895 -14.85544586 39.52518654 C-14.85804077 37.98905351 -14.87553102 36.45286491 -14.90877533 34.91708946 C-15.19630263 21.43049437 -15.19630263 21.43049437 -10.09472656 15.75708008 C-9.38753479 15.11797195 -8.68034302 14.47886383 -7.95172119 13.82038879 C-4.96339443 11.03314819 -3.5972255 7.69259558 -2 4 C-1.33989562 2.66340566 -0.67486982 1.32920012 0 0 Z " fill="#003759" transform="translate(657,316)"/>
<path d="M0 0 C1 1 1 1 1.11352539 3.13305664 C1.10828857 4.04949951 1.10305176 4.96594238 1.09765625 5.91015625 C1.09443359 6.89951172 1.09121094 7.88886719 1.08789062 8.90820312 C1.07532227 10.46958008 1.07532227 10.46958008 1.0625 12.0625 C1.05798828 13.10728516 1.05347656 14.15207031 1.04882812 15.22851562 C1.03699913 17.8190666 1.02051689 20.40950559 1 23 C-0.64548828 22.94779297 -0.64548828 22.94779297 -2.32421875 22.89453125 C-3.77863045 22.86638135 -5.2330588 22.83908248 -6.6875 22.8125 C-7.40873047 22.78736328 -8.12996094 22.76222656 -8.87304688 22.73632812 C-13.46546485 22.67341829 -16.4135053 23.06079163 -20 26 C-21.38125505 27.8906423 -21.38125505 27.8906423 -22.25 30 C-22.56453125 30.680625 -22.8790625 31.36125 -23.203125 32.0625 C-24.57593778 35.40031931 -25.13810693 38.07341224 -25.20532227 41.6550293 C-25.22526749 42.59577805 -25.24521271 43.53652679 -25.26576233 44.50578308 C-25.29083107 46.02465874 -25.29083107 46.02465874 -25.31640625 47.57421875 C-25.33718735 48.61318802 -25.35796844 49.65215729 -25.37937927 50.72261047 C-25.44480656 54.04417253 -25.50372821 57.36581416 -25.5625 60.6875 C-25.60569169 62.9381593 -25.64930619 65.18881052 -25.69335938 67.43945312 C-25.80127727 72.95955501 -25.9004018 78.4797166 -26 84 C-33.26 84 -40.52 84 -48 84 C-48 56.94 -48 29.88 -48 2 C-40.74 2 -33.48 2 -26 2 C-25.67 5.3 -25.34 8.6 -25 12 C-24.29875 11.0925 -23.5975 10.185 -22.875 9.25 C-16.69887072 1.85260221 -9.39973182 -0.83510014 0 0 Z " fill="#013557" transform="translate(454,612)"/>
<path d="M0 0 C5.45835049 4.71402997 8.66036304 9.48674738 9.203125 16.69921875 C9.33000383 24.78774431 8.72141527 31.81557594 3.625 38.375 C-1.19877697 43.19877697 -5.09483821 44.75790318 -11.75 45.3125 C-17.34206924 45.20855819 -21.6236729 43.12397378 -25.765625 39.421875 C-31.83558639 32.8804603 -32.47793055 25.89867714 -32.30859375 17.22265625 C-31.68161314 10.67507398 -29.4305582 5.98414238 -24.5625 1.5625 C-16.83920344 -4.33202444 -8.55555334 -4.77136628 0 0 Z " fill="#FAFAFA" transform="translate(862,634)"/>
<path d="M0 0 C3.815625 -0.061875 7.63125 -0.12375 11.5625 -0.1875 C13.34636108 -0.22846802 13.34636108 -0.22846802 15.16625977 -0.27026367 C21.99072685 -0.32369203 27.54697696 -0.21776213 32.77734375 4.65625 C36.33774175 10.31452562 37.0643698 15.39696513 36 22 C34.30841103 26.87681502 31.27084203 30.15277198 27 33 C23.8815675 34.0394775 21.72524414 34.11494838 18.45703125 34.09765625 C17.00647339 34.09390991 17.00647339 34.09390991 15.52661133 34.09008789 C14.30095459 34.08098389 13.07529785 34.07187988 11.8125 34.0625 C5.9653125 34.0315625 5.9653125 34.0315625 0 34 C0 22.78 0 11.56 0 0 Z " fill="#FBFBFA" transform="translate(156,605)"/>
<path d="M0 0 C4.12494151 -0.05784708 8.24977944 -0.09354407 12.375 -0.125 C13.550625 -0.14175781 14.72625 -0.15851563 15.9375 -0.17578125 C17.61972656 -0.18544922 17.61972656 -0.18544922 19.3359375 -0.1953125 C20.37282715 -0.20578613 21.4097168 -0.21625977 22.47802734 -0.22705078 C25 0 25 0 27 2 C27.24291992 4.21484375 27.24291992 4.21484375 27.23046875 6.9375 C27.22853516 7.91460937 27.22660156 8.89171875 27.22460938 9.8984375 C27.20624023 11.43371094 27.20624023 11.43371094 27.1875 13 C27.18685547 14.02351562 27.18621094 15.04703125 27.18554688 16.1015625 C27.14032251 23.71935497 27.14032251 23.71935497 26 26 C21.68751391 26.02886537 17.37505238 26.04675255 13.0625 26.0625 C11.83080078 26.07087891 10.59910156 26.07925781 9.33007812 26.08789062 C8.16025391 26.09111328 6.99042969 26.09433594 5.78515625 26.09765625 C4.15912476 26.10551147 4.15912476 26.10551147 2.50024414 26.11352539 C0 26 0 26 -1 25 C-1.09934776 23.31614925 -1.1308005 21.62818403 -1.1328125 19.94140625 C-1.13410156 18.91595703 -1.13539063 17.89050781 -1.13671875 16.83398438 C-1.13285156 15.75439453 -1.12898437 14.67480469 -1.125 13.5625 C-1.12886719 12.48677734 -1.13273438 11.41105469 -1.13671875 10.30273438 C-1.13542969 9.27599609 -1.13414062 8.24925781 -1.1328125 7.19140625 C-1.13168457 6.24467041 -1.13055664 5.29793457 -1.12939453 4.32250977 C-1 2 -1 2 0 0 Z " fill="#033859" transform="translate(604,231)"/>
<path d="M0 0 C0.45335217 6.34693035 -0.30427978 10.72683822 -4 16 C-7.18121205 19.2785961 -10.2061715 21.87274341 -14.86328125 22.203125 C-16.00152344 22.21859375 -17.13976562 22.2340625 -18.3125 22.25 C-19.44300781 22.27578125 -20.57351563 22.3015625 -21.73828125 22.328125 C-25.34077832 21.96571811 -27.13419627 21.17090973 -30 19 C-32.34168764 15.48746854 -32.49623677 14.13530644 -32 10 C-29.87490503 5.74981007 -27.07703154 4.41041984 -22.8125 2.75 C-15.18745995 0.23535913 -7.96922186 -0.14489494 0 0 Z " fill="#FAFAFA" transform="translate(368,660)"/>
<path d="M0 0 C0.886875 -0.00257813 1.77375 -0.00515625 2.6875 -0.0078125 C4.0796875 0.00378906 4.0796875 0.00378906 5.5 0.015625 C6.428125 0.00789063 7.35625 0.00015625 8.3125 -0.0078125 C9.6428125 -0.00394531 9.6428125 -0.00394531 11 0 C11.8146875 0.00225586 12.629375 0.00451172 13.46875 0.00683594 C15.5 0.265625 15.5 0.265625 17.5 2.265625 C17.75878906 4.20507812 17.75878906 4.20507812 17.765625 6.546875 C17.76949219 7.80951172 17.76949219 7.80951172 17.7734375 9.09765625 C17.76570312 9.97808594 17.75796875 10.85851562 17.75 11.765625 C17.75773438 12.64605469 17.76546875 13.52648437 17.7734375 14.43359375 C17.77085937 15.27535156 17.76828125 16.11710937 17.765625 16.984375 C17.76336914 17.75716797 17.76111328 18.52996094 17.75878906 19.32617188 C17.5 21.265625 17.5 21.265625 15.5 23.265625 C13.34521484 23.49267578 13.34521484 23.49267578 10.7109375 23.4609375 C9.76992188 23.45449219 8.82890625 23.44804687 7.859375 23.44140625 C6.87453125 23.42464844 5.8896875 23.40789062 4.875 23.390625 C3.88242187 23.38160156 2.88984375 23.37257813 1.8671875 23.36328125 C-0.58878134 23.33966616 -3.04427168 23.30673299 -5.5 23.265625 C-7.2680198 19.7295854 -6.68464913 15.65991245 -6.6875 11.765625 C-6.70586914 10.44498047 -6.70586914 10.44498047 -6.72460938 9.09765625 C-6.72654297 8.25589844 -6.72847656 7.41414063 -6.73046875 6.546875 C-6.73457764 5.77408203 -6.73868652 5.00128906 -6.74291992 4.20507812 C-6.21714027 0.00729567 -3.58185238 0.0099181 0 0 Z " fill="#003356" transform="translate(586.5,266.734375)"/>
<path d="M0 0 C0.45335217 6.34693035 -0.30427978 10.72683822 -4 16 C-8.50770548 20.64569646 -11.89464041 22.17440336 -18.3125 22.3125 C-19.44300781 22.34988281 -20.57351563 22.38726563 -21.73828125 22.42578125 C-25.64304057 21.91605818 -27.22148129 20.72790817 -30 18 C-31.61062292 14.77875416 -31.58878151 11.48420115 -31 8 C-26.27064918 2.35529095 -18.32008153 0.99895697 -11.3125 0.3125 C-7.5368489 0.04735596 -3.78611649 -0.10232747 0 0 Z " fill="#F9FAFA" transform="translate(656,660)"/>
<path d="M0 0 C2.701875 -0.0825 5.40375 -0.165 8.1875 -0.25 C9.02949951 -0.28641602 9.87149902 -0.32283203 10.73901367 -0.36035156 C14.61533274 -0.41748499 16.58543479 -0.24982296 19.98828125 1.80078125 C22.76632527 4.83774976 23 6.92576703 23 11 C21.49467224 14.31172107 19.57030308 16.48745654 17 19 C17.433125 19.62648438 17.86625 20.25296875 18.3125 20.8984375 C18.869375 21.71570313 19.42625 22.53296875 20 23.375 C20.556875 24.18710937 21.11375 24.99921875 21.6875 25.8359375 C23 28 23 28 23 30 C20.2265625 30.30859375 20.2265625 30.30859375 17 30 C15.0234375 27.84765625 15.0234375 27.84765625 13.375 25.0625 C11.78981937 22.30898504 11.78981937 22.30898504 10 20 C8.68 19.67 7.36 19.34 6 19 C6 22.63 6 26.26 6 30 C4.02 30 2.04 30 0 30 C0 20.1 0 10.2 0 0 Z " fill="#033455" transform="translate(465,742)"/>
<path d="M0 0 C2.31 0 4.62 0 7 0 C8.17112946 2.62309099 9.33705964 5.24828142 10.5 7.875 C10.83386719 8.62136719 11.16773438 9.36773438 11.51171875 10.13671875 C11.98544922 11.20986328 11.98544922 11.20986328 12.46875 12.3046875 C12.76201172 12.96452637 13.05527344 13.62436523 13.35742188 14.30419922 C14 16 14 16 14 18 C14.66 18 15.32 18 16 18 C16.10183594 17.31550781 16.20367188 16.63101563 16.30859375 15.92578125 C17.13769992 12.41730374 18.5172232 9.44244474 20.0625 6.1875 C20.88427734 4.44533203 20.88427734 4.44533203 21.72265625 2.66796875 C22.35494141 1.34732422 22.35494141 1.34732422 23 0 C25.31 0 27.62 0 30 0 C30 9.9 30 19.8 30 30 C28.35 30 26.7 30 25 30 C24.67 24.06 24.34 18.12 24 12 C21.69 16.62 19.38 21.24 17 26 C15.35 25.67 13.7 25.34 12 25 C9.46693634 20.86247954 7.87581917 16.49324127 6 12 C5.67 17.94 5.34 23.88 5 30 C3.35 30 1.7 30 0 30 C0 20.1 0 10.2 0 0 Z " fill="#03395B" transform="translate(838,742)"/>
<path d="M0 0 C2.31 0 4.62 0 7 0 C9.64 5.61 12.28 11.22 15 17 C16.134375 14.751875 17.26875 12.50375 18.4375 10.1875 C18.79384521 9.48391357 19.15019043 8.78032715 19.51733398 8.05541992 C20.8543276 5.39328479 22.05663531 2.83009406 23 0 C25.31 0 27.62 0 30 0 C30 9.9 30 19.8 30 30 C28.35 30 26.7 30 25 30 C24.67 24.06 24.34 18.12 24 12 C22.02 16.62 20.04 21.24 18 26 C16.35 26 14.7 26 13 26 C10.69 21.05 8.38 16.1 6 11 C5.67 17.27 5.34 23.54 5 30 C3.35 30 1.7 30 0 30 C0 20.1 0 10.2 0 0 Z " fill="#03223F" transform="translate(186,742)"/>
<path d="M0 0 C2.31 0 4.62 0 7 0 C8.17112946 2.62309099 9.33705964 5.24828142 10.5 7.875 C10.83386719 8.62136719 11.16773438 9.36773438 11.51171875 10.13671875 C11.98544922 11.20986328 11.98544922 11.20986328 12.46875 12.3046875 C12.76201172 12.96452637 13.05527344 13.62436523 13.35742188 14.30419922 C14 16 14 16 14 18 C14.66 18 15.32 18 16 18 C16.10183594 17.31550781 16.20367188 16.63101563 16.30859375 15.92578125 C17.13769992 12.41730374 18.5172232 9.44244474 20.0625 6.1875 C20.88427734 4.44533203 20.88427734 4.44533203 21.72265625 2.66796875 C22.35494141 1.34732422 22.35494141 1.34732422 23 0 C25.31 0 27.62 0 30 0 C30 9.9 30 19.8 30 30 C28.35 30 26.7 30 25 30 C24.67 24.06 24.34 18.12 24 12 C21.69 16.62 19.38 21.24 17 26 C15.35 25.67 13.7 25.34 12 25 C9.46693634 20.86247954 7.87581917 16.49324127 6 12 C5.67 17.61 5.34 23.22 5 29 C3.35 29 1.7 29 0 29 C0 19.43 0 9.86 0 0 Z " fill="#022949" transform="translate(502,742)"/>
<path d="M0 0 C3.83625 -0.061875 3.83625 -0.061875 7.75 -0.125 C8.54889648 -0.14320801 9.34779297 -0.16141602 10.17089844 -0.18017578 C13.93649051 -0.20957965 16.86562647 -0.20973334 20 2 C22.30575932 5.22806304 22.39651864 8.11411732 22 12 C20.33237678 15.49406769 19.25993978 16.82670681 16 19 C16.5053125 19.62648438 17.010625 20.25296875 17.53125 20.8984375 C18.1809375 21.71570313 18.830625 22.53296875 19.5 23.375 C20.47453125 24.59316406 20.47453125 24.59316406 21.46875 25.8359375 C23 28 23 28 23 30 C20.375 30.5 20.375 30.5 17 30 C14.09086101 27.07079798 11.84322617 23.68645234 10 20 C8.35 19.67 6.7 19.34 5 19 C5 22.63 5 26.26 5 30 C3.35 30 1.7 30 0 30 C0 20.1 0 10.2 0 0 Z " fill="#042F50" transform="translate(269,742)"/>
<path d="M0 0 C1.4540625 0.0309375 1.4540625 0.0309375 2.9375 0.0625 C5.85708841 6.88348531 8.62712152 13.74763698 11.25 20.6875 C11.51635254 21.38617187 11.78270508 22.08484375 12.05712891 22.8046875 C13.9375 27.82230282 13.9375 27.82230282 13.9375 30.0625 C11.9575 30.0625 9.9775 30.0625 7.9375 30.0625 C7.2775 27.7525 6.6175 25.4425 5.9375 23.0625 C1.9775 23.0625 -1.9825 23.0625 -6.0625 23.0625 C-6.7225 25.3725 -7.3825 27.6825 -8.0625 30.0625 C-10.0425 30.0625 -12.0225 30.0625 -14.0625 30.0625 C-12.16479365 23.25308311 -9.87259268 16.6322033 -7.4375 10 C-7.12417725 9.14237061 -6.81085449 8.28474121 -6.48803711 7.40112305 C-6.19034424 6.59715088 -5.89265137 5.79317871 -5.5859375 4.96484375 C-5.31700684 4.23773193 -5.04807617 3.51062012 -4.77099609 2.76147461 C-3.55521767 -0.15396372 -3.40127248 0.06941372 0 0 Z " fill="#033B5E" transform="translate(559.0625,741.9375)"/>
<path d="M0 0 C15 0 15 0 20 3 C21.6020886 6.20417721 21.49285215 9.52339432 21 13 C18.8755173 16.44312714 17.85147359 17.71617547 14 19 C12.43881572 19.06740865 10.8749748 19.08514456 9.3125 19.0625 C7.1778125 19.0315625 7.1778125 19.0315625 5 19 C5 22.63 5 26.26 5 30 C3.35 30 1.7 30 0 30 C0 20.1 0 10.2 0 0 Z " fill="#021A38" transform="translate(355,742)"/>
<path d="M0 0 C2.31 0 4.62 0 7 0 C8.4304204 3.78795106 9.8543979 7.57825448 11.27246094 11.37084961 C11.75572265 12.66057458 12.24073669 13.94964438 12.72753906 15.23803711 C13.42713915 17.09054958 14.11991233 18.94563569 14.8125 20.80078125 C15.23144531 21.91622314 15.65039062 23.03166504 16.08203125 24.1809082 C17 27 17 27 17 30 C15.02 30 13.04 30 11 30 C10.34 28.02 9.68 26.04 9 24 C5.04 23.67 1.08 23.34 -3 23 C-3.144375 23.969375 -3.28875 24.93875 -3.4375 25.9375 C-4 29 -4 29 -5 30 C-6.66617115 30.04063832 -8.33388095 30.042721 -10 30 C-9.41054142 25.81131279 -8.4409435 22.11289424 -6.93359375 18.1640625 C-6.53076172 17.10058594 -6.12792969 16.03710938 -5.71289062 14.94140625 C-5.29201172 13.84699219 -4.87113281 12.75257813 -4.4375 11.625 C-4.01275391 10.50738281 -3.58800781 9.38976562 -3.15039062 8.23828125 C-2.10520253 5.49025861 -1.05493476 2.74429248 0 0 Z " fill="#011633" transform="translate(436,742)"/>
<path d="M0 0 C2.31 0 4.62 0 7 0 C10.9253096 9.9235355 14.78592922 19.81878201 18 30 C16.02 30 14.04 30 12 30 C10.5393715 27.35261084 10 26.10551666 10 23 C6.04 23.33 2.08 23.66 -2 24 C-2.66 25.98 -3.32 27.96 -4 30 C-5.98 30 -7.96 30 -10 30 C-7.56775836 19.6919283 -3.74664374 9.88394443 0 0 Z " fill="#042949" transform="translate(239,742)"/>
<path d="M0 0 C1.65 0 3.3 0 5 0 C5 3.96 5 7.92 5 12 C9.62 12 14.24 12 19 12 C19 8.04 19 4.08 19 0 C20.65 0 22.3 0 24 0 C24 9.9 24 19.8 24 30 C22.35 30 20.7 30 19 30 C19 25.71 19 21.42 19 17 C14.38 17 9.76 17 5 17 C5 21.29 5 25.58 5 30 C3.35 30 1.7 30 0 30 C0 20.1 0 10.2 0 0 Z " fill="#011833" transform="translate(389,742)"/>
<path d="M0 0 C6.27 0 12.54 0 19 0 C19 1.65 19 3.3 19 5 C14.71 5 10.42 5 6 5 C6 7.31 6 9.62 6 12 C9.96 12 13.92 12 18 12 C18 13.65 18 15.3 18 17 C14.04 17 10.08 17 6 17 C6 19.64 6 22.28 6 25 C10.29 25 14.58 25 19 25 C19 26.65 19 28.3 19 30 C12.73 30 6.46 30 0 30 C0 20.1 0 10.2 0 0 Z " fill="#043254" transform="translate(804,742)"/>
<path d="M0 0 C2.37109375 1.52734375 2.37109375 1.52734375 4 3 C3.34 4.32 2.68 5.64 2 7 C1.154375 6.649375 0.30875 6.29875 -0.5625 5.9375 C-4.45017533 4.87722491 -7.08425639 5.21685128 -11 6 C-11 6.99 -11 7.98 -11 9 C-10.09636719 9.31453125 -9.19273437 9.6290625 -8.26171875 9.953125 C-7.08222656 10.38109375 -5.90273438 10.8090625 -4.6875 11.25 C-2.92986328 11.87648438 -2.92986328 11.87648438 -1.13671875 12.515625 C2.05685771 14.02690651 3.31327902 14.9520656 5 18 C5.5 20.9375 5.5 20.9375 5 24 C0.15993326 29.73165799 0.15993326 29.73165799 -3.91796875 30.23828125 C-9.85900707 30.4325665 -13.08859772 29.34393347 -18 26 C-18 25.01 -18 24.02 -18 23 C-16.3125 21.8125 -16.3125 21.8125 -14 21 C-12.31791365 21.97383946 -10.65261839 22.97695052 -9 24 C-5.79083829 24.25136033 -5.79083829 24.25136033 -3 24 C-2.67 22.35 -2.34 20.7 -2 19 C-2.83144531 18.75765625 -3.66289063 18.5153125 -4.51953125 18.265625 C-5.60621094 17.93046875 -6.69289063 17.5953125 -7.8125 17.25 C-8.89144531 16.92515625 -9.97039063 16.6003125 -11.08203125 16.265625 C-14.23407686 14.89847269 -15.36080086 13.97629332 -17 11 C-17.57804541 6.95368213 -17.66053174 4.92002635 -15.25 1.5625 C-10.34501962 -0.79566365 -5.35046892 -0.81692166 0 0 Z " fill="#082544" transform="translate(755,742)"/>
<path d="M0 0 C2.875 1.40625 2.875 1.40625 5 3 C5 3.66 5 4.32 5 5 C2.75 6.125 2.75 6.125 0 7 C-2 6.125 -2 6.125 -4 5 C-6.66709069 4.83249586 -6.66709069 4.83249586 -9 5 C-9.33 6.32 -9.66 7.64 -10 9 C-9.16855469 9.32613281 -8.33710937 9.65226563 -7.48046875 9.98828125 C-6.39378906 10.42527344 -5.30710937 10.86226562 -4.1875 11.3125 C-3.10855469 11.74175781 -2.02960937 12.17101562 -0.91796875 12.61328125 C1.72998502 13.87167963 3.30003085 14.64798789 5 17 C5.77333333 23.96 5.77333333 23.96 3.1875 27.4375 C-1.17590745 30.5542196 -5.82511362 30.64246038 -11 30 C-14.5625 28.25 -14.5625 28.25 -17 26 C-17 24.68 -17 23.36 -17 22 C-13 22 -13 22 -11.25 23 C-7.82202983 24.5235423 -4.72960332 24.12432011 -1 24 C-1.0809018 21.54819022 -1.0809018 21.54819022 -2 19 C-4.39069454 17.66395962 -4.39069454 17.66395962 -7.3125 16.9375 C-11.61081299 15.69219437 -14.1398099 14.51204738 -17 11 C-17.74523902 7.10819624 -17.31228623 5.51304166 -15.25 2.125 C-10.42584383 -1.02925596 -5.61771934 -0.89644458 0 0 Z " fill="#072241" transform="translate(688,742)"/>
<path d="M0 0 C2.37109375 1.52734375 2.37109375 1.52734375 4 3 C3.34 4.32 2.68 5.64 2 7 C1.154375 6.649375 0.30875 6.29875 -0.5625 5.9375 C-4.45017533 4.87722491 -7.08425639 5.21685128 -11 6 C-11 6.99 -11 7.98 -11 9 C-10.18015625 9.31453125 -9.3603125 9.6290625 -8.515625 9.953125 C-7.43796875 10.38109375 -6.3603125 10.8090625 -5.25 11.25 C-4.18265625 11.66765625 -3.1153125 12.0853125 -2.015625 12.515625 C1.0591042 14.02909274 2.90082761 15.30251277 5 18 C5.5501633 20.87432256 5.03674169 23.27994655 4 26 C0.77237504 29.22762496 -1.97962134 30.25615023 -6.4375 30.5 C-11.1920272 30.3065955 -14.11028784 28.64831466 -18 26 C-18 25.01 -18 24.02 -18 23 C-16.3125 21.8125 -16.3125 21.8125 -14 21 C-12.31791365 21.97383946 -10.65261839 22.97695052 -9 24 C-5.79083829 24.25136033 -5.79083829 24.25136033 -3 24 C-2.67 22.35 -2.34 20.7 -2 19 C-2.66386719 18.84144531 -3.32773438 18.68289063 -4.01171875 18.51953125 C-9.51569716 17.06519535 -13.64870599 15.91523122 -17 11 C-17.625 7.4375 -17.625 7.4375 -17 4 C-13.07205271 -1.47106944 -6.12555554 -0.93526364 0 0 Z " fill="#07395B" transform="translate(168,742)"/>
<path d="M0 0 C2.41878935 1.46564266 4.00439565 2.95187975 6 5 C5.01 6.32 4.02 7.64 3 9 C0.50638429 7.79618552 -1.68143083 6.54571278 -4 5 C-7.58823475 5.12815124 -10.05539031 5.26868927 -12.9375 7.5 C-14.57515893 11.35331512 -14.77535609 14.88914977 -14 19 C-11.5422681 22.54202539 -10.18675879 23.7820239 -5.9375 24.5625 C-2.4225847 23.88943111 -1.22386372 22.73706304 1 20 C2.32 20.66 3.64 21.32 5 22 C5 22.99 5 23.98 5 25 C0.32712415 29.18099418 -2.53462384 30.37213686 -8.68359375 30.2734375 C-12.95518544 29.76920239 -15.58613008 27.73980879 -18.25390625 24.45703125 C-21.05232736 20.1960207 -21.93485226 16.05976736 -21 11 C-19.63927585 6.57965941 -17.73681506 3.09420965 -13.875 0.4375 C-9.32121428 -1.75615162 -4.76652045 -1.39317018 0 0 Z " fill="#052241" transform="translate(603,742)"/>
<path d="M0 0 C7.92 0 15.84 0 24 0 C24 1.65 24 3.3 24 5 C21.03 5 18.06 5 15 5 C15 13.25 15 21.5 15 30 C13.02 30 11.04 30 9 30 C9 21.75 9 13.5 9 5 C6.03 5 3.06 5 0 5 C0 3.35 0 1.7 0 0 Z " fill="#0C3352" transform="translate(768,742)"/>
<path d="M0 0 C7.92 0 15.84 0 24 0 C24 1.65 24 3.3 24 5 C21.03 5 18.06 5 15 5 C15 13.25 15 21.5 15 30 C13.02 30 11.04 30 9 30 C9 21.75 9 13.5 9 5 C6.03 5 3.06 5 0 5 C0 3.35 0 1.7 0 0 Z " fill="#104A6A" transform="translate(301,742)"/>
<path d="M0 0 C2.7578125 -0.34375 2.7578125 -0.34375 6 0 C8.1171875 2.40625 8.1171875 2.40625 9.875 5.5 C10.47054687 6.5209375 11.06609375 7.541875 11.6796875 8.59375 C12.11539063 9.3878125 12.55109375 10.181875 13 11 C13.50789062 10.2059375 14.01578125 9.411875 14.5390625 8.59375 C15.22742188 7.5728125 15.91578125 6.551875 16.625 5.5 C17.63433594 3.96859375 17.63433594 3.96859375 18.6640625 2.40625 C21 0 21 0 24.2734375 -0.34375 C25.62308594 -0.17359375 25.62308594 -0.17359375 27 0 C25.58144925 4.09968595 23.54560879 7.05407768 20.9375 10.5 C16.53498299 16.90076614 15.80250428 22.34704093 16 30 C14.35 30 12.7 30 11 30 C11.04382813 29.23558594 11.08765625 28.47117187 11.1328125 27.68359375 C11.10947916 17.98859051 7.7109411 12.53957378 2.15234375 5.01953125 C0 2 0 2 0 0 Z " fill="#061D3A" transform="translate(701,742)"/>
<path d="M0 0 C2.7265625 -0.34375 2.7265625 -0.34375 6 0 C8.3359375 2.40625 8.3359375 2.40625 10.375 5.5 C11.06335938 6.5209375 11.75171875 7.541875 12.4609375 8.59375 C12.96882812 9.3878125 13.47671875 10.181875 14 11 C14.63615234 9.80890625 14.63615234 9.80890625 15.28515625 8.59375 C17.04152016 5.53651875 18.75288389 2.71996487 21 0 C24.9375 -0.6875 24.9375 -0.6875 28 0 C26.92188894 1.89880796 25.83726681 3.79391978 24.75 5.6875 C24.14671875 6.74324219 23.5434375 7.79898438 22.921875 8.88671875 C21 12 21 12 18.8125 14.46875 C16.51153595 17.68216531 16.4082288 19.89633732 16.25 23.8125 C16.19328125 24.97394531 16.1365625 26.13539063 16.078125 27.33203125 C16.05234375 28.21246094 16.0265625 29.09289062 16 30 C14.35 30 12.7 30 11 30 C11.04382813 29.2471875 11.08765625 28.494375 11.1328125 27.71875 C11.105827 16.60072437 6.10126103 9.90274749 0 1 C0 0.67 0 0.34 0 0 Z " fill="#02395D" transform="translate(617,742)"/>
<path d="M0 0 C2 0 2 0 3.4921875 1.171875 C7.84830419 6.45338435 9.3359649 14.35964903 10 21 C10.31966139 22.66934283 10.64731066 24.3373217 11 26 C10.01 26 9.02 26 8 26 C7.34 24.35 6.68 22.7 6 21 C2.04 20.67 -1.92 20.34 -6 20 C-5.3827904 17.8727242 -4.75598201 15.74823143 -4.125 13.625 C-3.77695312 12.44164062 -3.42890625 11.25828125 -3.0703125 10.0390625 C-2 7 -2 7 0 5 C0.66 6.65 1.32 8.3 2 10 C1.34 6.7 0.68 3.4 0 0 Z " fill="#03294B" transform="translate(440,744)"/>
<path d="M0 0 C6.27 0 12.54 0 19 0 C19 1.65 19 3.3 19 5 C14.71 4.67 10.42 4.34 6 4 C6 3.67 6 3.34 6 3 C9.96 3 13.92 3 18 3 C18 2.34 18 1.68 18 1 C12.72 1 7.44 1 2 1 C2 9.91 2 18.82 2 28 C7.28 28 12.56 28 18 28 C18 27.34 18 26.68 18 26 C14.04 26 10.08 26 6 26 C6 25.67 6 25.34 6 25 C10.29 25 14.58 25 19 25 C19 26.65 19 28.3 19 30 C12.73 30 6.46 30 0 30 C0 20.1 0 10.2 0 0 Z " fill="#132944" transform="translate(804,742)"/>
<path d="M0 0 C2 1 2 1 2.8515625 3.50390625 C3.10679687 4.51324219 3.36203125 5.52257812 3.625 6.5625 C4.01558594 8.08037109 4.01558594 8.08037109 4.4140625 9.62890625 C4.60742188 10.41136719 4.80078125 11.19382812 5 12 C3.35 12.33 1.7 12.66 0 13 C2.97 13.495 2.97 13.495 6 14 C6 14.33 6 14.66 6 15 C2.37 15 -1.26 15 -5 15 C-5.66 17.64 -6.32 20.28 -7 23 C-8.98 23 -10.96 23 -13 23 C-12.32953451 19.18153941 -11.5682183 15.55717809 -10 12 C-7.67793475 11.29508733 -5.34406932 10.62787571 -3 10 C-1.44367357 6.78431508 -0.67735941 3.49646479 0 0 Z " fill="#124768" transform="translate(242,749)"/>
<path d="M0 0 C3.83625 -0.061875 3.83625 -0.061875 7.75 -0.125 C8.54889648 -0.14320801 9.34779297 -0.16141602 10.17089844 -0.18017578 C13.93649051 -0.20957965 16.86562647 -0.20973334 20 2 C22.29598877 5.21438427 22.33656708 8.12947854 22 12 C21.34 12.66 20.68 13.32 20 14 C19.67 10.37 19.34 6.74 19 3 C15.73118027 2.18279507 13.53000931 1.88926457 10.25 1.9375 C9.05117188 1.95103516 9.05117188 1.95103516 7.828125 1.96484375 C6.92320312 1.98224609 6.92320312 1.98224609 6 2 C6.69867188 2.10957031 7.39734375 2.21914063 8.1171875 2.33203125 C9.48230469 2.56986328 9.48230469 2.56986328 10.875 2.8125 C12.23238281 3.03873047 12.23238281 3.03873047 13.6171875 3.26953125 C16 4 16 4 18 7 C17.625 9.1875 17.625 9.1875 17 11 C16.34 9.35 15.68 7.7 15 6 C11.7 5.67 8.4 5.34 5 5 C5 7.97 5 10.94 5 14 C7.97 14 10.94 14 14 14 C14 14.33 14 14.66 14 15 C12.35425434 15.02688151 10.70838587 15.04634123 9.0625 15.0625 C8.14597656 15.07410156 7.22945313 15.08570313 6.28515625 15.09765625 C4 15 4 15 3 14 C2.92820036 12.48071962 2.91607993 10.95832518 2.9375 9.4375 C2.94652344 8.61121094 2.95554687 7.78492188 2.96484375 6.93359375 C2.97644531 6.29550781 2.98804688 5.65742187 3 5 C2.34 5 1.68 5 1 5 C1 12.92 1 20.84 1 29 C0.67 29 0.34 29 0 29 C0 19.43 0 9.86 0 0 Z " fill="#021531" transform="translate(269,742)"/>
<path d="M0 0 C2.75 -0.375 2.75 -0.375 6 0 C8.55237559 2.97777152 9.8482607 5.50684726 11 9.25 C11.81851183 12.48237645 11.81851183 12.48237645 16 14 C15.67 18.62 15.34 23.24 15 28 C14.01 28 13.02 28 12 28 C12 24.37 12 20.74 12 17 C11.01 16.67 10.02 16.34 9 16 C7.32648151 13.71372518 5.8034865 11.46187062 4.3125 9.0625 C3.89677734 8.41603516 3.48105469 7.76957031 3.05273438 7.10351562 C0 2.27628541 0 2.27628541 0 0 Z " fill="#013A5D" transform="translate(701,742)"/>
<path d="M0 0 C0 3 0 3 -4 8 C20.255 8.495 20.255 8.495 45 9 C43 11 43 11 40.78536987 11.24050903 C39.40637009 11.2338472 39.40637009 11.2338472 37.99951172 11.22705078 C36.95858368 11.22689972 35.91765564 11.22674866 34.84518433 11.22659302 C33.1545134 11.21110916 33.1545134 11.21110916 31.4296875 11.1953125 C30.27832306 11.1924826 29.12695862 11.18965271 27.94070435 11.18673706 C24.25203188 11.17551408 20.56359947 11.15040556 16.875 11.125 C14.37890975 11.11497294 11.8828157 11.10584662 9.38671875 11.09765625 C3.25773016 11.07556784 -2.87111777 11.04206947 -9 11 C-8.06558465 9.72689688 -7.12732889 8.456612 -6.1875 7.1875 C-5.66542969 6.47980469 -5.14335938 5.77210938 -4.60546875 5.04296875 C-3.16871123 3.21468607 -1.68184237 1.60103312 0 0 Z " fill="#0A2F51" transform="translate(596,433)"/>
<path d="M0 0 C3 2 3 2 3.51171875 3.9453125 C3.67447917 5.96354167 3.83723958 7.98177083 4 10 C-0.24683548 13.48458296 -3.22433351 14.63070508 -8.7421875 14.40625 C-12.42239892 13.74406663 -14.92648352 12.09260696 -18 10 C-18 9.01 -18 8.02 -18 7 C-16.68 6.34 -15.36 5.68 -14 5 C-12.9790625 5.99 -12.9790625 5.99 -11.9375 7 C-8.32082639 9.46241608 -6.29322859 9.48602588 -2 9 C0.41121859 7.04366025 0.41121859 7.04366025 0.125 3.375 C0.08375 2.26125 0.0425 1.1475 0 0 Z " fill="#081B3B" transform="translate(168,758)"/>
<path d="M0 0 C1.5778125 0.2475 1.5778125 0.2475 3.1875 0.5 C2.10938894 2.39880796 1.02476681 4.29391978 -0.0625 6.1875 C-0.66578125 7.24324219 -1.2690625 8.29898438 -1.890625 9.38671875 C-3.8125 12.5 -3.8125 12.5 -6 14.96875 C-8.30096405 18.18216531 -8.4042712 20.39633732 -8.5625 24.3125 C-8.61921875 25.47394531 -8.6759375 26.63539063 -8.734375 27.83203125 C-8.76015625 28.71246094 -8.7859375 29.59289062 -8.8125 30.5 C-10.4625 30.5 -12.1125 30.5 -13.8125 30.5 C-13.87308594 29.59636719 -13.93367187 28.69273437 -13.99609375 27.76171875 C-14.07988281 26.58222656 -14.16367187 25.40273438 -14.25 24.1875 C-14.33121094 23.01574219 -14.41242187 21.84398437 -14.49609375 20.63671875 C-14.6992371 17.47409042 -14.6992371 17.47409042 -15.8125 14.5 C-15.1525 14.5 -14.4925 14.5 -13.8125 14.5 C-12.43023984 17.26452033 -12.71724613 19.5461363 -12.75 22.625 C-12.75902344 23.72070312 -12.76804687 24.81640625 -12.77734375 25.9453125 C-12.78894531 26.78835938 -12.80054688 27.63140625 -12.8125 28.5 C-11.8225 28.5 -10.8325 28.5 -9.8125 28.5 C-10.1425 24.21 -10.4725 19.92 -10.8125 15.5 C-9.8225 15.17 -8.8325 14.84 -7.8125 14.5 C-8.080625 13.675 -8.34875 12.85 -8.625 12 C-8.8572079 7.66545245 -7.81271228 5.60700468 -5.42578125 2.0703125 C-3.8125 0.5 -3.8125 0.5 0 0 Z " fill="#051F3D" transform="translate(641.8125,741.5)"/>
<path d="M0 0 C1.4540625 0.0309375 1.4540625 0.0309375 2.9375 0.0625 C3.80330287 1.99482821 4.65479941 3.93357194 5.5 5.875 C6.21349609 7.49341797 6.21349609 7.49341797 6.94140625 9.14453125 C7.9375 12.0625 7.9375 12.0625 6.9375 15.0625 C6.2775 13.0825 5.6175 11.1025 4.9375 9.0625 C4.2775 9.0625 3.6175 9.0625 2.9375 9.0625 C3.2675 9.949375 3.5975 10.83625 3.9375 11.75 C4.84972143 14.77173347 5.12080958 16.94623706 4.9375 20.0625 C1.9675 20.0625 -1.0025 20.0625 -4.0625 20.0625 C-4.0625 19.7325 -4.0625 19.4025 -4.0625 19.0625 C-1.4225 19.0625 1.2175 19.0625 3.9375 19.0625 C3.61265625 18.24845703 3.61265625 18.24845703 3.28125 17.41796875 C3.0028125 16.70253906 2.724375 15.98710938 2.4375 15.25 C2.1590625 14.54230469 1.880625 13.83460938 1.59375 13.10546875 C0.9375 11.0625 0.9375 11.0625 0.9375 8.0625 C0.2775 8.0625 -0.3825 8.0625 -1.0625 8.0625 C-1.3925 9.3825 -1.7225 10.7025 -2.0625 12.0625 C-2.3925 11.0725 -2.7225 10.0825 -3.0625 9.0625 C-2.7325 8.4025 -2.4025 7.7425 -2.0625 7.0625 C-3.3825 8.0525 -4.7025 9.0425 -6.0625 10.0625 C-5.75451674 8.58238629 -5.440982 7.10342675 -5.125 5.625 C-4.95097656 4.80128906 -4.77695312 3.97757813 -4.59765625 3.12890625 C-3.74861631 -0.14950344 -3.55198744 0.07248954 0 0 Z " fill="#032444" transform="translate(559.0625,741.9375)"/>
<path d="M0 0 C0 1.32 0 2.64 0 4 C0.33 3.01 0.66 2.02 1 1 C1.66 1 2.32 1 3 1 C3.50615298 2.26839526 4.00469099 3.53983102 4.5 4.8125 C4.7784375 5.52019531 5.056875 6.22789062 5.34375 6.95703125 C6 9 6 9 6 12 C4.3603125 12.2165625 4.3603125 12.2165625 2.6875 12.4375 C-0.93122987 12.88288104 -0.93122987 12.88288104 -4 14 C-4 13.34 -4 12.68 -4 12 C-4.66 12 -5.32 12 -6 12 C-5.9129995 10.37399059 -5.8048219 8.74910322 -5.6875 7.125 C-5.62949219 6.22007812 -5.57148437 5.31515625 -5.51171875 4.3828125 C-4.81887225 1.15658073 -3.34638587 0 0 0 Z " fill="#184765" transform="translate(557,749)"/>
<path d="M0 0 C2.31 0 4.62 0 7 0 C7.33 1.98 7.66 3.96 8 6 C7.34 4.68 6.68 3.36 6 2 C5.34 2 4.68 2 4 2 C4.30035156 2.91523437 4.60070312 3.83046875 4.91015625 4.7734375 C5.29042969 5.96195313 5.67070312 7.15046875 6.0625 8.375 C6.44535156 9.55835938 6.82820313 10.74171875 7.22265625 11.9609375 C8 15 8 15 7 17 C5.68 14.36 4.36 11.72 3 9 C2.773125 9.94875 2.54625 10.8975 2.3125 11.875 C1 15 1 15 -1.625 16.375 C-2.800625 16.684375 -2.800625 16.684375 -4 17 C-3.63223832 10.69732561 -2.83374078 5.66748157 0 0 Z " fill="#062341" transform="translate(436,742)"/>
<path d="M0 0 C2.54843589 0.3515084 3.84721664 0.86829021 5.8125 2.5625 C7.56791399 6.16571819 7.06436947 9.2021362 6 13 C4.625 15 4.625 15 3 16 C2.01 16 1.02 16 0 16 C0 15.34 0 14.68 0 14 C-3.63 14 -7.26 14 -11 14 C-11 13.67 -11 13.34 -11 13 C-10.37351562 12.93941406 -9.74703125 12.87882813 -9.1015625 12.81640625 C-8.28429687 12.73261719 -7.46703125 12.64882813 -6.625 12.5625 C-5.81289063 12.48128906 -5.00078125 12.40007813 -4.1640625 12.31640625 C-1.95727195 12.10909886 -1.95727195 12.10909886 0 11 C0 9.02 0 7.04 0 5 C-3.3 4.34 -6.6 3.68 -10 3 C-10 2.67 -10 2.34 -10 2 C-8.58376784 1.94552953 -7.16691809 1.90699492 -5.75 1.875 C-4.96109375 1.85179687 -4.1721875 1.82859375 -3.359375 1.8046875 C-0.79268059 2.0171622 0.7916067 2.71345895 3 4 C2.01 2.68 1.02 1.36 0 0 Z " fill="#071E3B" transform="translate(481,743)"/>
<path d="M0 0 C0.99 0 1.98 0 3 0 C3.33 3.96 3.66 7.92 4 12 C10.93 12.495 10.93 12.495 18 13 C18 13.33 18 13.66 18 14 C13.38 14 8.76 14 4 14 C3.67 18.29 3.34 22.58 3 27 C2.01 27 1.02 27 0 27 C0 18.09 0 9.18 0 0 Z " fill="#013A5D" transform="translate(390,743)"/>
<path d="M0 0 C2.31 0 4.62 0 7 0 C7 9.9 7 19.8 7 30 C5.35 30 3.7 30 2 30 C2 24.06 2 18.12 2 12 C2.33 12 2.66 12 3 12 C3.33 13.98 3.66 15.96 4 18 C4.66 12.39 5.32 6.78 6 1 C4.02 1.33 2.04 1.66 0 2 C0 1.34 0 0.68 0 0 Z " fill="#021A34" transform="translate(861,742)"/>
<path d="M0 0 C1.64574566 -0.02688151 3.29161413 -0.04634123 4.9375 -0.0625 C5.85402344 -0.07410156 6.77054687 -0.08570313 7.71484375 -0.09765625 C10 0 10 0 11 1 C11.1875 3.9375 11.1875 3.9375 11 7 C9 9 9 9 6.8359375 9.1953125 C4.55729167 9.13020833 2.27864583 9.06510417 0 9 C0 6.03 0 3.06 0 0 Z " fill="#F8FAFA" transform="translate(274,747)"/>
<path d="M0 0 C1.64574566 -0.02688151 3.29161413 -0.04634123 4.9375 -0.0625 C5.85402344 -0.07410156 6.77054687 -0.08570313 7.71484375 -0.09765625 C10 0 10 0 11 1 C11.25 3.9375 11.25 3.9375 11 7 C7.91111478 9.05925681 7.29064073 9.2390374 3.8125 9.125 C1.9253125 9.063125 1.9253125 9.063125 0 9 C0 6.03 0 3.06 0 0 Z " fill="#F9FAFB" transform="translate(471,747)"/>
<path d="M0 0 C6.8359375 -0.1953125 6.8359375 -0.1953125 9 0 C9.66 0.66 10.32 1.32 11 2 C10.75 5.0625 10.75 5.0625 10 8 C6.78548731 9.60725635 3.56387464 9.05748185 0 9 C0 6.03 0 3.06 0 0 Z " fill="#F8FBFB" transform="translate(360,747)"/>
<path d="M0 0 C1.04929687 -0.02578125 2.09859375 -0.0515625 3.1796875 -0.078125 C6.43056586 0.28404182 7.74850767 1.06867854 10.125 3.25 C9.465 4.57 8.805 5.89 8.125 7.25 C7.279375 6.899375 6.43375 6.54875 5.5625 6.1875 C1.60989481 5.10951677 -0.91743505 5.26060876 -4.875 6.25 C-5.865 7.735 -5.865 7.735 -6.875 9.25 C-7.205 7.6 -7.535 5.95 -7.875 4.25 C-8.865 4.745 -8.865 4.745 -9.875 5.25 C-7.54212857 0.08435613 -5.51919031 0.08096612 0 0 Z " fill="#082F4F" transform="translate(748.875,741.75)"/>
<path d="M0 0 C1 2 1 2 0.1875 5.0625 C-1 8 -1 8 -3 9 C-3.65772428 12.02934491 -3.65772428 12.02934491 -4 15 C-2.21118763 13.21118763 -1.46152436 10.72186204 -0.4375 8.4375 C0.01753906 7.42558594 0.47257813 6.41367187 0.94140625 5.37109375 C1.29074219 4.58863281 1.64007812 3.80617188 2 3 C3 6 3 6 1.78515625 8.91796875 C1.21667969 9.99691406 0.64820313 11.07585938 0.0625 12.1875 C-0.50339844 13.27417969 -1.06929687 14.36085938 -1.65234375 15.48046875 C-2.09707031 16.31191406 -2.54179688 17.14335938 -3 18 C-5.2890625 17.90234375 -5.2890625 17.90234375 -8 17 C-9.8359375 14.12890625 -9.8359375 14.12890625 -11.375 10.5625 C-11.89835937 9.38816406 -12.42171875 8.21382812 -12.9609375 7.00390625 C-13.30382812 6.01261719 -13.64671875 5.02132812 -14 4 C-13.67 3.34 -13.34 2.68 -13 2 C-9 8.625 -9 8.625 -9 12 C-8.34 12 -7.68 12 -7 12 C-7.99 9.03 -8.98 6.06 -10 3 C-7.1709277 5.8290723 -6.62388892 6.38144425 -6 10 C-5.34 10 -4.68 10 -4 10 C-3.896875 9.278125 -3.79375 8.55625 -3.6875 7.8125 C-2.94013068 4.75508007 -1.71954811 2.61670365 0 0 Z " fill="#091733" transform="translate(522,750)"/>
<path d="M0 0 C1 2 1 2 0.0625 5.125 C-0.288125 6.07375 -0.63875 7.0225 -1 8 C-0.34 8 0.32 8 1 8 C1 8.66 1 9.32 1 10 C4.96 10.33 8.92 10.66 13 11 C13 11.33 13 11.66 13 12 C9.04 12 5.08 12 1 12 C0.34 14.31 -0.32 16.62 -1 19 C-2.98 19 -4.96 19 -7 19 C-5.17778624 12.38757278 -2.94776396 6.19479329 0 0 Z " fill="#051B39" transform="translate(552,753)"/>
<path d="M0 0 C4.95 0 9.9 0 15 0 C15 0.33 15 0.66 15 1 C10.71 1 6.42 1 2 1 C2 9.91 2 18.82 2 28 C3.32 28 4.64 28 6 28 C6 28.66 6 29.32 6 30 C4.02 30 2.04 30 0 30 C0 20.1 0 10.2 0 0 Z " fill="#062542" transform="translate(465,742)"/>
<path d="M0 0 C7.05927607 0.15346252 11.00672254 0.8753205 16 6 C15.01 7.32 14.02 8.64 13 10 C11.0625 9.1875 11.0625 9.1875 9 8 C8.67 7.01 8.34 6.02 8 5 C1.68731397 4.62447835 1.68731397 4.62447835 -4 7 C-4.33 6.01 -4.66 5.02 -5 4 C-4.175 3.525625 -3.35 3.05125 -2.5 2.5625 C-1.2625 1.7890625 -1.2625 1.7890625 0 1 C0 0.67 0 0.34 0 0 Z " fill="#0F3452" transform="translate(593,741)"/>
<path d="M0 0 C2.31 0 4.62 0 7 0 C7.33 1.65 7.66 3.3 8 5 C7.34 3.68 6.68 2.36 6 1 C4.35 1 2.7 1 1 1 C1 9.91 1 18.82 1 28 C1.66 28 2.32 28 3 28 C2.97679687 27.02417969 2.95359375 26.04835938 2.9296875 25.04296875 C2.91164063 23.77066406 2.89359375 22.49835937 2.875 21.1875 C2.85179687 19.92292969 2.82859375 18.65835938 2.8046875 17.35546875 C3 14 3 14 5 11 C5 17.27 5 23.54 5 30 C3.35 30 1.7 30 0 30 C0 20.1 0 10.2 0 0 Z " fill="#02112B" transform="translate(838,742)"/>
<path d="M0 0 C0 1.98 0 3.96 0 6 C3.58752742 7.86551426 7.27812193 9.42535928 11 11 C8.55011158 13.44988842 7.43395207 13.7658669 4 14 C0.06385984 12.45641562 -1.63226576 11.55160136 -4 8 C-4.07905064 5.66800612 -4.08798769 3.33167378 -4 1 C-1 0 -1 0 0 0 Z " fill="#072D4D" transform="translate(742,745)"/>
<path d="M0 0 C0.33 0 0.66 0 1 0 C1 7.59 1 15.18 1 23 C1.66 23 2.32 23 3 23 C3 15.41 3 7.82 3 0 C3.66 0.33 4.32 0.66 5 1 C5 8.92 5 16.84 5 25 C3.35 25 1.7 25 0 25 C0 16.75 0 8.5 0 0 Z " fill="#02193A" transform="translate(311,747)"/>
<path d="M0 0 C1.03145371 1.30915279 2.03542166 2.64082143 3 4 C0.37886292 4 -1.50935112 3.68707555 -4 3 C-4 3.33 -4 3.66 -4 4 C-6.31 4 -8.62 4 -11 4 C-11 6.97 -11 9.94 -11 13 C-12.32 12.34 -13.64 11.68 -15 11 C-15 7.37 -15 3.74 -15 0 C-12.87562788 -0.19448477 -10.75046809 -0.38038289 -8.625 -0.5625 C-7.44164062 -0.66691406 -6.25828125 -0.77132812 -5.0390625 -0.87890625 C-2 -1 -2 -1 0 0 Z " fill="#053E60" transform="translate(482,743)"/>
<path d="M0 0 C6.93 0 13.86 0 21 0 C20.67 12.54 20.34 25.08 20 38 C19.67 38 19.34 38 19 38 C19 26.12 19 14.24 19 2 C12.73 2 6.46 2 0 2 C0 1.34 0 0.68 0 0 Z " fill="#001A3E" transform="translate(228,585)"/>
<path d="M0 0 C0.66 0 1.32 0 2 0 C2.33 7.59 2.66 15.18 3 23 C1.35 23 -0.3 23 -2 23 C-1.67 22.34 -1.34 21.68 -1 21 C-0.92795969 19.48985504 -0.91613934 17.97655514 -0.9375 16.46484375 C-0.94523438 15.57345703 -0.95296875 14.68207031 -0.9609375 13.76367188 C-0.97382813 12.83103516 -0.98671875 11.89839844 -1 10.9375 C-1.02539566 9.09250507 -1.04646727 7.24744379 -1.0625 5.40234375 C-1.07410156 4.58241943 -1.08570313 3.76249512 -1.09765625 2.91772461 C-1 1 -1 1 0 0 Z " fill="#033859" transform="translate(188,749)"/>
<path d="M0 0 C5.28 0 10.56 0 16 0 C16 1.32 16 2.64 16 4 C12.04 4 8.08 4 4 4 C4 6.31 4 8.62 4 11 C3.34 11 2.68 11 2 11 C-0.57877584 6.97066275 0 5.48465565 0 0 Z " fill="#053A5C" transform="translate(806,743)"/>
<path d="M0 0 C0 0.33 0 0.66 0 1 C-3.3 1.66 -6.6 2.32 -10 3 C-9.34 3.66 -8.68 4.32 -8 5 C-7.01 4.34 -6.02 3.68 -5 3 C-2.95703125 2.8046875 -2.95703125 2.8046875 -0.8125 2.875 C1.0746875 2.936875 1.0746875 2.936875 3 3 C3.33 3.66 3.66 4.32 4 5 C2.783125 4.896875 1.56625 4.79375 0.3125 4.6875 C-3.06239186 4.7174724 -3.99390469 4.99619043 -7 6.875 C-9.80122464 11.2519135 -9.44196249 14.94198488 -9 20 C-9.66 20 -10.32 20 -11 20 C-11.33 16.37 -11.66 12.74 -12 9 C-12.99 9.33 -13.98 9.66 -15 10 C-14.11721782 6.1157584 -13.33480634 4.29587537 -10.3125 1.625 C-6.56903702 -0.2114158 -4.11628873 -0.3293031 0 0 Z " fill="#031735" transform="translate(598,742)"/>
<path d="M0 0 C0.66 0 1.32 0 2 0 C2.33 2.97 2.66 5.94 3 9 C5.31 9.66 7.62 10.32 10 11 C10 11.33 10 11.66 10 12 C8.02 12.33 6.04 12.66 4 13 C3.67 16.3 3.34 19.6 3 23 C2.01 23 1.02 23 0 23 C0 15.41 0 7.82 0 0 Z " fill="#013D5F" transform="translate(270,747)"/>
<path d="M0 0 C2.91517292 1.07401108 4.77810176 1.77810176 7 4 C8.175625 4.165 9.35125 4.33 10.5625 4.5 C12.2640625 4.7475 12.2640625 4.7475 14 5 C14.33 5.66 14.66 6.32 15 7 C12.69 7 10.38 7 8 7 C8 7.66 8 8.32 8 9 C3.59885603 8.49701212 1.28804981 6.91227269 -2 4 C-1.34 2.68 -0.68 1.36 0 0 Z " fill="#052C4A" transform="translate(672,763)"/>
<path d="M0 0 C4.17103241 0.24535485 6.55592948 0.68545005 10 3.125 C12 6 12 6 11.8125 9.8125 C11.544375 10.864375 11.27625 11.91625 11 13 C10.67 13 10.34 13 10 13 C9.855625 11.865625 9.71125 10.73125 9.5625 9.5625 C9.38828522 6.19222799 9.38828522 6.19222799 8 5 C8.061875 5.928125 8.12375 6.85625 8.1875 7.8125 C8 11 8 11 7 12.875 C3.74686316 14.70488947 0.68609891 14.18128355 -3 14 C-3 13.67 -3 13.34 -3 13 C0.465 12.505 0.465 12.505 4 12 C4.33 10.35 4.66 8.7 5 7 C2.525 6.01 2.525 6.01 0 5 C3 4 3 4 6 5 C4.60804085 2.2160817 2.84424221 2.02101003 0 1 C0 0.67 0 0.34 0 0 Z " fill="#071A37" transform="translate(161,754)"/>
<path d="M0 0 C1.04929688 -0.02578125 2.09859375 -0.0515625 3.1796875 -0.078125 C6.43056586 0.28404182 7.74850767 1.06867854 10.125 3.25 C9.465 4.57 8.805 5.89 8.125 7.25 C2.185 5.765 2.185 5.765 -3.875 4.25 C-3.875 3.92 -3.875 3.59 -3.875 3.25 C-1.895 3.25 0.085 3.25 2.125 3.25 C2.125 2.59 2.125 1.93 2.125 1.25 C0.6858866 1.53359887 -0.75125518 1.82721399 -2.1875 2.125 C-2.98800781 2.28742187 -3.78851563 2.44984375 -4.61328125 2.6171875 C-7.12801118 3.19478999 -7.12801118 3.19478999 -9.875 5.25 C-7.54212857 0.08435613 -5.51919031 0.08096612 0 0 Z " fill="#051B37" transform="translate(161.875,741.75)"/>
<path d="M0 0 C1.32 0.33 2.64 0.66 4 1 C3.34 1.66 2.68 2.32 2 3 C2.5053125 3.62648438 3.010625 4.25296875 3.53125 4.8984375 C4.50578125 6.12433594 4.50578125 6.12433594 5.5 7.375 C6.1496875 8.18710937 6.799375 8.99921875 7.46875 9.8359375 C9 12 9 12 9 14 C6.375 14.5 6.375 14.5 3 14 C0.6317567 11.56775013 -1.19511787 8.86733048 -3 6 C-2.67 5.34 -2.34 4.68 -2 4 C-0.68 5.32 0.64 6.64 2 8 C1.67 7.4225 1.34 6.845 1 6.25 C0 4 0 4 0 0 Z " fill="#062342" transform="translate(283,758)"/>
<path d="M0 0 C4.88274689 4.88274689 6.42355091 11.53712777 6.7265625 18.25 C6.86191406 19.11625 6.86191406 19.11625 7 20 C7.66 20.33 8.32 20.66 9 21 C8.01 21 7.02 21 6 21 C5.67 19.02 5.34 17.04 5 15 C1.04 15 -2.92 15 -7 15 C-7 14.67 -7 14.34 -7 14 C-5.35 13.67 -3.7 13.34 -2 13 C-2.99 12.34 -3.98 11.68 -5 11 C-2.36 11 0.28 11 3 11 C2.7834375 10.45730469 2.566875 9.91460938 2.34375 9.35546875 C2.0653125 8.64003906 1.786875 7.92460938 1.5 7.1875 C1.2215625 6.47980469 0.943125 5.77210938 0.65625 5.04296875 C0 3 0 3 0 0 Z " fill="#021734" transform="translate(244,750)"/>
<path d="M0 0 C3 1 3 1 5 4 C5.99 4 6.98 4 8 4 C9.70532323 2.05990478 9.70532323 2.05990478 11 0 C10.54091176 4.68270009 10.03245489 8.29366624 7 12 C5.68 12 4.36 12 3 12 C2 8 1 4 0 0 Z " fill="#043B5D" transform="translate(195,755)"/>
<path d="M0 0 C1.58560393 0.25720674 3.16845924 0.53138799 4.75 0.8125 C5.63171875 0.96332031 6.5134375 1.11414063 7.421875 1.26953125 C10.1910911 2.05414248 11.8259401 3.14595359 14 5 C13.67 5.99 13.34 6.98 13 8 C12.01 7.01 11.02 6.02 10 5 C10.3403125 6.36125 10.3403125 6.36125 10.6875 7.75 C11 11 11 11 10 13.375 C7.06949364 15.75603642 4.65292086 15.27569214 1 15 C1 14.67 1 14.34 1 14 C3.31 13.34 5.62 12.68 8 12 C8 10.68 8 9.36 8 8 C5.525 7.01 5.525 7.01 3 6 C3.99 5.34 4.98 4.68 6 4 C4.02 3.01 2.04 2.02 0 1 C0 0.67 0 0.34 0 0 Z " fill="#051C3B" transform="translate(745,753)"/>
<path d="M0 0 C0.99 0 1.98 0 3 0 C4.42857143 8.57142857 4.42857143 8.57142857 2 12 C0.35 12 -1.3 12 -3 12 C-2.40075776 7.80530429 -1.42500059 3.99000166 0 0 Z " fill="#0C223E" transform="translate(429,760)"/>
<path d="M0 0 C3 2 3 2 3.51171875 3.9453125 C3.67447917 5.96354167 3.83723958 7.98177083 4 10 C0.52614567 12.31590289 -0.96430006 12.26991835 -5.0625 12.25 C-6.12597656 12.25515625 -7.18945312 12.2603125 -8.28515625 12.265625 C-11 12 -11 12 -13 10 C-12.34 10 -11.68 10 -11 10 C-11 9.34 -11 8.68 -11 8 C-10.34 8.33 -9.68 8.66 -9 9 C-5.5 9.25 -5.5 9.25 -2 9 C0.41121859 7.04366025 0.41121859 7.04366025 0.125 3.375 C0.08375 2.26125 0.0425 1.1475 0 0 Z " fill="#053D5E" transform="translate(168,758)"/>
<path d="M0 0 C0.33 0.66 0.66 1.32 1 2 C0.06421005 4.35981813 -0.93347808 6.69631264 -2 9 C-1.34 9 -0.68 9 0 9 C0.66 7.68 1.32 6.36 2 5 C1.39644592 8.85025879 0.23227397 11.86101159 -1.5625 15.3125 C-2.01753906 16.19550781 -2.47257813 17.07851563 -2.94140625 17.98828125 C-3.46541016 18.98408203 -3.46541016 18.98408203 -4 20 C-5.65 19.67 -7.3 19.34 -9 19 C-9.33 17.35 -9.66 15.7 -10 14 C-9.54625 14.66 -9.0925 15.32 -8.625 16 C-8.08875 16.66 -7.5525 17.32 -7 18 C-6.34 18 -5.68 18 -5 18 C-4.34 16.02 -3.68 14.04 -3 12 C-3.99 12.495 -3.99 12.495 -5 13 C-4.48474397 7.71862571 -2.74522883 4.42778844 0 0 Z " fill="#061935" transform="translate(859,748)"/>
<path d="M0 0 C2.475 0.99 2.475 0.99 5 2 C5.375 4.75 5.375 4.75 5 8 C1.68721837 11.14714255 -0.89526858 12.2340579 -5.375 12.25 C-6.57125 12.1675 -7.7675 12.085 -9 12 C-8.67 11.34 -8.34 10.68 -8 10 C-5.6859378 9.26924352 -3.35171131 8.59861742 -1 8 C-0.17361624 5.10765685 0 3.11257569 0 0 Z " fill="#053A5D" transform="translate(755,758)"/>
<path d="M0 0 C2.68092691 2.68092691 2.38670257 4.39167363 2.625 8.125 C2.69976562 9.22070312 2.77453125 10.31640625 2.8515625 11.4453125 C2.90054687 12.28835938 2.94953125 13.13140625 3 14 C2.34 14 1.68 14 1 14 C1 15.32 1 16.64 1 18 C1.66 18 2.32 18 3 18 C3 20.64 3 23.28 3 26 C2.01 26 1.02 26 0 26 C0 17.42 0 8.84 0 0 Z " fill="#013E61" transform="translate(356,744)"/>
<path d="M0 0 C1.98 0 3.96 0 6 0 C6.86580287 1.93232821 7.71729941 3.87107194 8.5625 5.8125 C9.27599609 7.43091797 9.27599609 7.43091797 10.00390625 9.08203125 C11 12 11 12 10 15 C9.34 13.02 8.68 11.04 8 9 C7.34 9 6.68 9 6 9 C6.33 9.886875 6.66 10.77375 7 11.6875 C7.91222143 14.70923347 8.18330958 16.88373706 8 20 C5.03 20 2.06 20 -1 20 C-1 19.67 -1 19.34 -1 19 C1.64 19 4.28 19 7 19 C6.67 18.154375 6.34 17.30875 6 16.4375 C4.93021151 12.76010206 4.85886505 9.81064376 5 6 C5 4.68 5 3.36 5 2 C3.35 2 1.7 2 0 2 C0 1.34 0 0.68 0 0 Z " fill="#031532" transform="translate(556,742)"/>
<path d="M0 0 C7.92 0 15.84 0 24 0 C24 1.32 24 2.64 24 4 C21.03 4 18.06 4 15 4 C15 3.67 15 3.34 15 3 C17.31 3 19.62 3 22 3 C22 2.34 22 1.68 22 1 C15.4 1 8.8 1 2 1 C2 1.66 2 2.32 2 3 C4.31 3 6.62 3 9 3 C5.86501708 4.85776765 3.62528568 5.20140476 0 5 C0 3.35 0 1.7 0 0 Z " fill="#020E27" transform="translate(301,742)"/>
<path d="M0 0 C4.00717 2.39925095 4.92541081 4.78797162 6.25 9.1875 C6.75273437 10.81751953 6.75273437 10.81751953 7.265625 12.48046875 C7.50796875 13.31191406 7.7503125 14.14335938 8 15 C6.35 15 4.7 15 3 15 C0.98792183 10.54468406 -0.31012036 5.83915573 -1 1 C-0.67 0.67 -0.34 0.34 0 0 Z " fill="#042E4E" transform="translate(249,757)"/>
<path d="M0 0 C0.78375 0.515625 1.5675 1.03125 2.375 1.5625 C3.24125 2.036875 4.1075 2.51125 5 3 C5.66 2.67 6.32 2.34 7 2 C10.49447972 3.32549231 13.1519077 5.62658975 16 8 C15.67 8.66 15.34 9.32 15 10 C14.278125 9.67 13.55625 9.34 12.8125 9 C10.10379749 7.83539439 10.10379749 7.83539439 7.5 8.125 C3.98251943 7.94912597 2.50686708 6.36759668 0 4 C-0.33 3.34 -0.66 2.68 -1 2 C-0.67 1.34 -0.34 0.68 0 0 Z " fill="#063659" transform="translate(675,751)"/>
<path d="M0 0 C1.98 1.65 3.96 3.3 6 5 C5.67 3.68 5.34 2.36 5 1 C8.39417765 4.12621626 10.6062718 6.56541027 12 11 C9.375 11.5625 9.375 11.5625 6 11 C3.30767599 7.99842256 0 4.17107607 0 0 Z " fill="#0B2745" transform="translate(476,761)"/>
<path d="M0 0 C2 2 2 2 2.25 5.75 C2.16876295 9.45982506 1.38476789 12.53808026 0 16 C-1.90401138 14.09598862 -2.93520439 12.66574314 -3.19921875 9.953125 C-3.1886578 7.96766727 -3.09915043 5.9830086 -3 4 C-2.01 3.67 -1.02 3.34 0 3 C0 2.01 0 1.02 0 0 Z " fill="#0B3655" transform="translate(585,749)"/>
<path d="M0 0 C2.7265625 -0.34375 2.7265625 -0.34375 6 0 C8.3359375 2.40625 8.3359375 2.40625 10.375 5.5 C11.06335938 6.5209375 11.75171875 7.541875 12.4609375 8.59375 C12.96882812 9.3878125 13.47671875 10.181875 14 11 C14.66 10.67 15.32 10.34 16 10 C15.67 10.99 15.34 11.98 15 13 C14.01 13 13.02 13 12 13 C10.46484375 10.8125 10.46484375 10.8125 8.9375 8 C8.01137659 6.30328536 7.04323525 4.62733075 6 3 C5.34 3 4.68 3 4 3 C4.37253906 3.55429687 4.74507812 4.10859375 5.12890625 4.6796875 C5.60199219 5.40414062 6.07507813 6.12859375 6.5625 6.875 C7.27599609 7.95394531 7.27599609 7.95394531 8.00390625 9.0546875 C8.49697266 10.01761719 8.49697266 10.01761719 9 11 C8.67 11.66 8.34 12.32 8 13 C6.84962529 11.3990869 5.70485184 9.79414775 4.5625 8.1875 C3.92441406 7.29417969 3.28632812 6.40085937 2.62890625 5.48046875 C1 3 1 3 0 0 Z " fill="#081934" transform="translate(617,742)"/>
<path d="M0 0 C3.3 0 6.6 0 10 0 C10 0.66 10 1.32 10 2 C10.66 2.33 11.32 2.66 12 3 C11.835 3.61875 11.67 4.2375 11.5 4.875 C10.92365356 6.96063386 10.92365356 6.96063386 11 9 C8.53199953 7.84826645 6.95216435 6.95216435 5 5 C2.42938689 4.35232207 2.42938689 4.35232207 0 4 C1.32 3.34 2.64 2.68 4 2 C2.68 1.34 1.36 0.68 0 0 Z " fill="#073A5D" transform="translate(471,757)"/>
<path d="M0 0 C2 1 2 1 2.8515625 3.28515625 C3.10679687 4.20167969 3.36203125 5.11820313 3.625 6.0625 C3.88539063 6.98160156 4.14578125 7.90070312 4.4140625 8.84765625 C4.60742188 9.55792969 4.80078125 10.26820313 5 11 C2.36 11 -0.28 11 -3 11 C-2.32829194 7.1936543 -1.27253436 3.64793184 0 0 Z " fill="#EAF1F3" transform="translate(242,749)"/>
<path d="M0 0 C0.66 0 1.32 0 2 0 C2.99 3.3 3.98 6.6 5 10 C2.36 10 -0.28 10 -3 10 C-2.01 6.7 -1.02 3.4 0 0 Z " fill="#F0F5F5" transform="translate(558,750)"/>
<path d="M0 0 C1.41623216 -0.05447047 2.83308191 -0.09300508 4.25 -0.125 C5.03890625 -0.14820313 5.8278125 -0.17140625 6.640625 -0.1953125 C9.24614317 0.02037609 10.79986977 0.6078822 13 2 C14.60725635 5.21451269 14.05748185 8.43612536 14 12 C13.34 12 12.68 12 12 12 C11.87882812 11.43410156 11.75765625 10.86820313 11.6328125 10.28515625 C11.46523438 9.55167969 11.29765625 8.81820312 11.125 8.0625 C10.96257812 7.33160156 10.80015625 6.60070312 10.6328125 5.84765625 C10.17038477 3.79299706 10.17038477 3.79299706 8 3 C6.46331135 2.77532169 4.92031946 2.59203195 3.375 2.4375 C2.55773437 2.35371094 1.74046875 2.26992188 0.8984375 2.18359375 C0.27195312 2.12300781 -0.35453125 2.06242188 -1 2 C-0.67 1.34 -0.34 0.68 0 0 Z " fill="#023D61" transform="translate(275,743)"/>
<path d="M0 0 C1.98 0 3.96 0 6 0 C4.6062718 4.43458973 2.39417765 6.87378374 -1 10 C-1.66 9.67 -2.32 9.34 -3 9 C-1.125 2.25 -1.125 2.25 0 0 Z " fill="#052A47" transform="translate(722,742)"/>
<path d="M0 0 C0.99 0.66 1.98 1.32 3 2 C2.03108808 7.4611399 2.03108808 7.4611399 1 10 C-1.625 11.5 -1.625 11.5 -4 12 C-3.9129995 10.37399059 -3.8048219 8.74910322 -3.6875 7.125 C-3.62949219 6.22007812 -3.57148438 5.31515625 -3.51171875 4.3828125 C-3 2 -3 2 0 0 Z " fill="#073251" transform="translate(436,747)"/>
<path d="M0 0 C2.45823172 3.68734758 3.01242616 6.69699971 4 11 C1.69 11 -0.62 11 -3 11 C-2.69078116 9.54096742 -2.37751201 8.08279278 -2.0625 6.625 C-1.88847656 5.81289063 -1.71445312 5.00078125 -1.53515625 4.1640625 C-1 2 -1 2 0 0 Z " fill="#F5F9F9" transform="translate(439,749)"/>
<path d="M0 0 C2.75 -0.375 2.75 -0.375 6 0 C8.375 3 8.375 3 10 6 C9.67 6.66 9.34 7.32 9 8 C8.38125 7.030625 7.7625 6.06125 7.125 5.0625 C5.34321154 1.97164638 5.34321154 1.97164638 3 1 C3.40992188 1.73605469 3.81984375 2.47210937 4.2421875 3.23046875 C4.78101563 4.20628906 5.31984375 5.18210937 5.875 6.1875 C6.67550781 7.63189453 6.67550781 7.63189453 7.4921875 9.10546875 C8.8423678 11.69739518 9.97098329 14.26761098 11 17 C7.85177192 14.06072511 5.54542155 11.0143222 3.25 7.375 C2.63640625 6.41335938 2.0228125 5.45171875 1.390625 4.4609375 C0 2 0 2 0 0 Z " fill="#081630" transform="translate(701,742)"/>
<path d="M0 0 C3.96 0 7.92 0 12 0 C12 1.98 12 3.96 12 6 C7.71 5.67 3.42 5.34 -1 5 C-0.67 3.35 -0.34 1.7 0 0 Z " fill="#195170" transform="translate(435,759)"/>
<path d="M0 0 C1.41623216 -0.05447047 2.83308191 -0.09300508 4.25 -0.125 C5.03890625 -0.14820313 5.8278125 -0.17140625 6.640625 -0.1953125 C9.22046936 0.01825077 10.7475059 0.77749252 13 2 C13.66 2 14.32 2 15 2 C15 4.64 15 7.28 15 10 C14.01 10 13.02 10 12 10 C11.34 7.69 10.68 5.38 10 3 C6.7 2.34 3.4 1.68 0 1 C0 0.67 0 0.34 0 0 Z " fill="#01284B" transform="translate(471,745)"/>
<path d="M0 0 C0.66 0 1.32 0 2 0 C2 0.99 2 1.98 2 3 C2.66 3 3.32 3 4 3 C4.33 2.34 4.66 1.68 5 1 C6.65 2.65 8.3 4.3 10 6 C9.67 6.66 9.34 7.32 9 8 C7.68 7.01 6.36 6.02 5 5 C5 5.99 5 6.98 5 8 C7.475 8.99 7.475 8.99 10 10 C8.375 10.8125 8.375 10.8125 6 11 C1.80789022 8.33962264 1.80789022 8.33962264 0 6 C-0.375 2.6875 -0.375 2.6875 0 0 Z " fill="#051D3D" transform="translate(671,747)"/>
<path d="M0 0 C1 2 1 2 0.1875 5.0625 C-1 8 -1 8 -3 9 C-3.65772428 12.02934491 -3.65772428 12.02934491 -4 15 C-5.32 14.67 -6.64 14.34 -8 14 C-8.144375 12.9275 -8.28875 11.855 -8.4375 10.75 C-8.83749442 8.08337051 -9.27591924 5.58600271 -10 3 C-7.49962266 5.17424117 -6.56371414 6.73045798 -6 10 C-5.34 10 -4.68 10 -4 10 C-3.8453125 8.9171875 -3.8453125 8.9171875 -3.6875 7.8125 C-2.94013068 4.75508007 -1.71954811 2.61670365 0 0 Z " fill="#032140" transform="translate(522,750)"/>
<path d="M0 0 C0.99 0 1.98 0 3 0 C2.3933295 6.4307073 2.3933295 6.4307073 0.8125 8.71875 C-1.74009756 10.52317241 -3.59889498 10.29650959 -6.6875 10.1875 C-7.68136719 10.16042969 -8.67523438 10.13335938 -9.69921875 10.10546875 C-10.45847656 10.07066406 -11.21773438 10.03585937 -12 10 C-12 9.67 -12 9.34 -12 9 C-10.329375 8.814375 -10.329375 8.814375 -8.625 8.625 C-4.96896323 8.3534187 -4.96896323 8.3534187 -3 6 C-2.34 6.33 -1.68 6.66 -1 7 C-0.67 4.69 -0.34 2.38 0 0 Z " fill="#023D60" transform="translate(372,749)"/>
<path d="M0 0 C0 0.66 0 1.32 0 2 C-0.7425 2.144375 -1.485 2.28875 -2.25 2.4375 C-4.52027739 2.90187492 -6.75759479 3.41863569 -9 4 C-9 5.32 -9 6.64 -9 8 C-9.99 8.33 -10.98 8.66 -12 9 C-12.33 7.02 -12.66 5.04 -13 3 C-8.24109471 0.62054735 -5.45161235 -0.10095578 0 0 Z " fill="#053C5D" transform="translate(164,743)"/>
<path d="M0 0 C0.91007813 0.00902344 1.82015625 0.01804687 2.7578125 0.02734375 C3.45648437 0.03894531 4.15515625 0.05054688 4.875 0.0625 C4.875 0.3925 4.875 0.7225 4.875 1.0625 C2.235 1.0625 -0.405 1.0625 -3.125 1.0625 C-3.125 1.7225 -3.125 2.3825 -3.125 3.0625 C-0.815 3.0625 1.495 3.0625 3.875 3.0625 C3.875 3.3925 3.875 3.7225 3.875 4.0625 C1.85677083 4.48567708 -0.16145833 4.90885417 -2.1796875 5.33203125 C-4.49546549 5.98558838 -4.49546549 5.98558838 -6.125 9.0625 C-6.455 7.4125 -6.785 5.7625 -7.125 4.0625 C-8.115 4.5575 -8.115 4.5575 -9.125 5.0625 C-6.91386358 0.16641221 -5.24075958 -0.06718923 0 0 Z " fill="#02132F" transform="translate(748.125,741.9375)"/>
<path d="M0 0 C2.59094622 0.35012787 4.5774211 0.73770965 6.8125 2.125 C8.63883169 5.00868162 8.18806842 7.67745793 8 11 C7.67 10.01 7.34 9.02 7 8 C6.4225 8.2475 5.845 8.495 5.25 8.75 C4.13625 8.87375 4.13625 8.87375 3 9 C0.875 7.1875 0.875 7.1875 -1 5 C-1.66 4.34 -2.32 3.68 -3 3 C-0.69 3.33 1.62 3.66 4 4 C2.68 2.68 1.36 1.36 0 0 Z " fill="#041938" transform="translate(685,755)"/>
<path d="M0 0 C3 3 3 3 4 6 C3.67 6.99 3.34 7.98 3 9 C1.02 9 -0.96 9 -3 9 C-2.01 6.03 -1.02 3.06 0 0 Z " fill="#092744" transform="translate(232,763)"/>
<path d="M0 0 C2.67901932 2.31881505 3.66204403 4.31814468 4.6875 7.6875 C4.93886719 8.49574219 5.19023438 9.30398438 5.44921875 10.13671875 C5.63097656 10.75160156 5.81273437 11.36648438 6 12 C4.35 12 2.7 12 1 12 C0.34 10.02 -0.32 8.04 -1 6 C-0.34 6 0.32 6 1 6 C0.67 4.02 0.34 2.04 0 0 Z " fill="#051F3E" transform="translate(846,748)"/>
<path d="M0 0 C12.01989891 -0.5683665 12.01989891 -0.5683665 16 3 C16 3.66 16 4.32 16 5 C14.35 5.66 12.7 6.32 11 7 C10.34 6.01 9.68 5.02 9 4 C9.33 3.01 9.66 2.02 10 1 C6.7 1 3.4 1 0 1 C0 0.67 0 0.34 0 0 Z " fill="#061830" transform="translate(677,742)"/>
<path d="M0 0 C2.56529454 1.28264727 2.66499863 2.22772349 3.625 4.875 C3.88539063 5.57367187 4.14578125 6.27234375 4.4140625 6.9921875 C5 9 5 9 5 12 C3.02 12 1.04 12 -1 12 C-1.66 9.36 -2.32 6.72 -3 4 C-2.01 4.495 -2.01 4.495 -1 5 C-0.375 7.5625 -0.375 7.5625 0 10 C0.99 10 1.98 10 3 10 C2.01 6.7 1.02 3.4 0 0 Z " fill="#0C233F" transform="translate(448,760)"/>
<path d="M0 0 C2.92586433 1.46293216 3.05946588 3.40270098 4.125 6.4375 C4.47820313 7.42621094 4.83140625 8.41492188 5.1953125 9.43359375 C6 12 6 12 6 14 C4.02 14 2.04 14 0 14 C0.33 13.01 0.66 12.02 1 11 C1.33 11 1.66 11 2 11 C1.34 7.37 0.68 3.74 0 0 Z " fill="#09233E" transform="translate(567,758)"/>
<path d="M0 0 C-0.99 0.33 -1.98 0.66 -3 1 C-3.73323796 3.01508358 -3.73323796 3.01508358 -4 5 C-4.70125 4.773125 -5.4025 4.54625 -6.125 4.3125 C-9.87010636 3.90542322 -11.73581802 5.25910295 -15 7 C-15.66 6.67 -16.32 6.34 -17 6 C-15.11076602 4.98758753 -13.21330056 3.99052575 -11.3125 3 C-10.25675781 2.443125 -9.20101562 1.88625 -8.11328125 1.3125 C-5.07773738 0.0327726 -3.23973174 -0.28851043 0 0 Z " fill="#06213F" transform="translate(731,585)"/>
<path d="M0 0 C1.50433594 0.29197266 1.50433594 0.29197266 3.0390625 0.58984375 C4.19535156 0.82380859 4.19535156 0.82380859 5.375 1.0625 C5.375 1.7225 5.375 2.3825 5.375 3.0625 C3.395 3.0625 1.415 3.0625 -0.625 3.0625 C-0.625 3.7225 -0.625 4.3825 -0.625 5.0625 C-3.96037489 3.95070837 -5.26207344 2.58838702 -7.625 0.0625 C-4.81015955 -1.34492022 -3.05563887 -0.60402164 0 0 Z " fill="#043B5D" transform="translate(595.625,766.9375)"/>
<path d="M0 0 C0.66 0.33 1.32 0.66 2 1 C2 1.99 2 2.98 2 4 C3.43750191 5.68798827 3.43750191 5.68798827 5 7 C3.68 7 2.36 7 1 7 C1.33 7.99 1.66 8.98 2 10 C-0.475 9.01 -0.475 9.01 -3 8 C-3.33 5.69 -3.66 3.38 -4 1 C-3.01 2.485 -3.01 2.485 -2 4 C-1.34 4 -0.68 4 0 4 C0 2.68 0 1.36 0 0 Z " fill="#031935" transform="translate(155,747)"/>
<path d="M0 0 C0.66 0.33 1.32 0.66 2 1 C2 3.31 2 5.62 2 8 C0.02 8 -1.96 8 -4 8 C-3.50168276 4.31245243 -2.89932357 2.39509338 0 0 Z " fill="#0B3756" transform="translate(549,764)"/>
<path d="M0 0 C0.99 0 1.98 0 3 0 C3 3.3 3 6.6 3 10 C2.01 10 1.02 10 0 10 C0 6.7 0 3.4 0 0 Z " fill="#003B60" transform="translate(409,743)"/>
<path d="M0 0 C5.28 0 10.56 0 16 0 C16.33 0.66 16.66 1.32 17 2 C16.67 2.66 16.34 3.32 16 4 C13.83125748 3.49396008 12.00032373 3.00016187 10 2 C8.29636178 1.77377919 6.58671299 1.59111527 4.875 1.4375 C3.96492188 1.35371094 3.05484375 1.26992188 2.1171875 1.18359375 C1.41851562 1.12300781 0.71984375 1.06242188 0 1 C0 0.67 0 0.34 0 0 Z " fill="#083E5E" transform="translate(358,744)"/>
<path d="M0 0 C1.98 0 3.96 0 6 0 C6.66 1.65 7.32 3.3 8 5 C7.34 5 6.68 5 6 5 C6 6.65 6 8.3 6 10 C5.67 9.01 5.34 8.02 5 7 C4.34 7 3.68 7 3 7 C3.33 6.01 3.66 5.02 4 4 C4.66 4 5.32 4 6 4 C6 3.34 6 2.68 6 2 C4.35 2.66 2.7 3.32 1 4 C0.67 2.68 0.34 1.36 0 0 Z " fill="#0B395C" transform="translate(555,743)"/>
<path d="M0 0 C1.9375 0.8125 1.9375 0.8125 4 2 C4.33 2.99 4.66 3.98 5 5 C3.02 5.33 1.04 5.66 -1 6 C-1.66 5.01 -2.32 4.02 -3 3 C-2.01 2.01 -1.02 1.02 0 0 Z " fill="#022544" transform="translate(152,763)"/>
<path d="M0 0 C1 4 2 8 3 12 C2.01 12 1.02 12 0 12 C-0.39063507 10.56666979 -0.76198474 9.12807321 -1.125 7.6875 C-1.33382813 6.88699219 -1.54265625 6.08648438 -1.7578125 5.26171875 C-2 3 -2 3 0 0 Z " fill="#043A5C" transform="translate(448,758)"/>
<path d="M0 0 C0.99 0 1.98 0 3 0 C4.15837626 4.05431692 3.83691257 6.21812119 2 10 C1.01 10 0.02 10 -1 10 C-0.67 6.7 -0.34 3.4 0 0 Z " fill="#033C5E" transform="translate(429,760)"/>
<path d="M0 0 C0.80050781 0.03480469 1.60101562 0.06960938 2.42578125 0.10546875 C3.63814453 0.14607422 3.63814453 0.14607422 4.875 0.1875 C5.48988281 0.22230469 6.10476563 0.25710938 6.73828125 0.29296875 C7.06828125 1.28296875 7.39828125 2.27296875 7.73828125 3.29296875 C6.41828125 3.62296875 5.09828125 3.95296875 3.73828125 4.29296875 C3.73828125 3.96296875 3.73828125 3.63296875 3.73828125 3.29296875 C0.76828125 3.29296875 -2.20171875 3.29296875 -5.26171875 3.29296875 C-2.26171875 0.29296875 -2.26171875 0.29296875 0 0 Z " fill="#064062" transform="translate(680.26171875,742.70703125)"/>
<path d="M0 0 C0.66 0.33 1.32 0.66 2 1 C-1.31909349 5.39291786 -3.79887886 7.8227865 -9 10 C-7.61811547 6.78956118 -6.07578097 4.95063635 -3.375 2.75 C-2.74335937 2.22921875 -2.11171875 1.7084375 -1.4609375 1.171875 C-0.73777344 0.59179688 -0.73777344 0.59179688 0 0 Z " fill="#051C3B" transform="translate(712,592)"/>
<path d="M0 0 C0.66 0 1.32 0 2 0 C2 2.31 2 4.62 2 7 C0.68 7.33 -0.64 7.66 -2 8 C-3.125 4.25 -3.125 4.25 -2 2 C-1.34 1.34 -0.68 0.68 0 0 Z " fill="#063B5C" transform="translate(555,749)"/>
<path d="M0 0 C1.65 1.32 3.3 2.64 5 4 C4.67 4.66 4.34 5.32 4 6 C3.01 5.34 2.02 4.68 1 4 C-0.485 6.475 -0.485 6.475 -2 9 C-2.33 8.34 -2.66 7.68 -3 7 C-2.06421005 4.64018187 -1.06652192 2.30368736 0 0 Z " fill="#061834" transform="translate(657,316)"/>
<path d="M0 0 C2 0 2 0 3.625 1.5 C4.07875 1.995 4.5325 2.49 5 3 C4.34 4.98 3.68 6.96 3 9 C0.23776722 6.23776722 0.42143709 3.79293383 0 0 Z " fill="#053B5D" transform="translate(440,744)"/>
<path d="M0 0 C1.92057292 0.390625 3.84114583 0.78125 5.76171875 1.171875 C5.76171875 1.501875 5.76171875 1.831875 5.76171875 2.171875 C1.47171875 2.831875 -2.81828125 3.491875 -7.23828125 4.171875 C-2.23828125 0.171875 -2.23828125 0.171875 0 0 Z " fill="#031B3B" transform="translate(638.23828125,658.828125)"/>
<path d="M0 0 C0.99 0.66 1.98 1.32 3 2 C2 4 2 4 0 7 C-0.66 7 -1.32 7 -2 7 C-2.33 5.35 -2.66 3.7 -3 2 C-2.01 1.34 -1.02 0.68 0 0 Z " fill="#093E61" transform="translate(436,747)"/>
<path d="M0 0 C1.32 0 2.64 0 4 0 C5.49821059 3.37097383 6 5.20442119 6 9 C5.34 9 4.68 9 4 9 C3.896875 8.236875 3.79375 7.47375 3.6875 6.6875 C2.95012228 3.80502345 2.19029986 2.90460858 0 1 C0 0.67 0 0.34 0 0 Z " fill="#0C2C4B" transform="translate(243,744)"/>
<path d="M0 0 C4.2742558 1.5830577 6.26531794 4.50568404 9 8 C8.67 8.66 8.34 9.32 8 10 C7.4225 9.236875 6.845 8.47375 6.25 7.6875 C4.16642802 4.99108421 4.16642802 4.99108421 1.75 3.3125 C1.1725 2.879375 0.595 2.44625 0 2 C0 1.34 0 0.68 0 0 Z " fill="#12263F" transform="translate(782,595)"/>
<path d="M0 0 C1.37432457 3.81756824 0.67975039 7.07255329 0 11 C-0.99 11.33 -1.98 11.66 -3 12 C-2.68950274 10.56206608 -2.3765224 9.1246682 -2.0625 7.6875 C-1.88847656 6.88699219 -1.71445312 6.08648437 -1.53515625 5.26171875 C-1 3 -1 3 0 0 Z " fill="#082140" transform="translate(585,377)"/>
<path d="M0 0 C1.9375 0.75 1.9375 0.75 4 2 C4.75 4.125 4.75 4.125 5 6 C3.35 6 1.7 6 0 6 C-0.38218767 4.34385343 -0.71395102 2.67542976 -1 1 C-0.67 0.67 -0.34 0.34 0 0 Z " fill="#0E3E5E" transform="translate(252,766)"/>
<path d="M0 0 C2.03833424 1.2739589 4.03852126 2.61061923 6 4 C6 4.66 6 5.32 6 6 C3.625 5.6875 3.625 5.6875 1 5 C0.34 4.01 -0.32 3.02 -1 2 C-0.67 1.34 -0.34 0.68 0 0 Z " fill="#013D5F" transform="translate(675,751)"/>
<path d="M0 0 C2 3 2 3 2 5 C2.66 5 3.32 5 4 5 C3.67 6.32 3.34 7.64 3 9 C2.01 8.01 1.02 7.02 0 6 C-0.99 6.495 -0.99 6.495 -2 7 C-1.34 4.69 -0.68 2.38 0 0 Z " fill="#163C58" transform="translate(285,750)"/>
<path d="M0 0 C-2.91403262 1.94268841 -5.85808576 3.46395304 -9 5 C-9.33 4.01 -9.66 3.02 -10 2 C-6.5980513 -0.09350689 -3.94727588 -0.17942163 0 0 Z " fill="#034063" transform="translate(598,743)"/>
<path d="M0 0 C0.33 0 0.66 0 1 0 C1 1.65 1 3.3 1 5 C1.66 5.33 2.32 5.66 3 6 C2.01 6.66 1.02 7.32 0 8 C0 7.34 0 6.68 0 6 C-2.97 6 -5.94 6 -9 6 C-9 5.67 -9 5.34 -9 5 C-6.03 5 -3.06 5 0 5 C0 3.35 0 1.7 0 0 Z " fill="#56829A" transform="translate(368,640)"/>
<path d="M0 0 C2 1.375 2 1.375 4 3 C4 3.66 4 4.32 4 5 C2.02 5 0.04 5 -2 5 C-2 4.01 -2 3.02 -2 2 C-1.34 2 -0.68 2 0 2 C0 1.34 0 0.68 0 0 Z " fill="#122D46" transform="translate(288,767)"/>
<path d="M0 0 C0.99 0.33 1.98 0.66 3 1 C3.6875 3.0625 3.6875 3.0625 4 5 C3.01 5.495 3.01 5.495 2 6 C1.01 5.67 0.02 5.34 -1 5 C-1.33 4.01 -1.66 3.02 -2 2 C-1.34 2 -0.68 2 0 2 C0 1.34 0 0.68 0 0 Z " fill="#073859" transform="translate(689,762)"/>
<path d="M0 0 C2.64 0.66 5.28 1.32 8 2 C7.34 2.66 6.68 3.32 6 4 C2.875 3.625 2.875 3.625 0 3 C0 2.01 0 1.02 0 0 Z " fill="#023D61" transform="translate(745,754)"/>
<path d="M0 0 C0.66 0.33 1.32 0.66 2 1 C0.90716423 2.03295436 -0.19970579 3.05107835 -1.3125 4.0625 C-1.92738281 4.63097656 -2.54226563 5.19945312 -3.17578125 5.78515625 C-3.77777344 6.18605469 -4.37976563 6.58695312 -5 7 C-5.99 6.67 -6.98 6.34 -8 6 C-5.36 4.02 -2.72 2.04 0 0 Z " fill="#041734" transform="translate(558,340)"/>
<path d="M0 0 C0.33 0 0.66 0 1 0 C1 2.31 1 4.62 1 7 C-0.32 7.33 -1.64 7.66 -3 8 C-1.125 2.25 -1.125 2.25 0 0 Z " fill="#DFE8EA" transform="translate(526,752)"/>
<path d="M0 0 C0.99 0.495 0.99 0.495 2 1 C2 1.66 2 2.32 2 3 C4.64 3 7.28 3 10 3 C10 3.33 10 3.66 10 4 C6.7 4.33 3.4 4.66 0 5 C0 3.35 0 1.7 0 0 Z " fill="#072142" transform="translate(768,742)"/>
</svg>
